<svg xmlns="http://www.w3.org/2000/svg"><defs><font horiz-adv-x="1024"><font-face units-per-em="1024" ascent="960" descent="-64"/><glyph horiz-adv-x="512"/><glyph unicode="" d="M1024 369.556l-512 397.426-512-397.428v162.038l512 397.426 512-397.428zm-128 14.444v-384h-256v256h-256v-256h-256v384l384 288z"/><glyph unicode="" d="M512 928l-512-512 96-96 96 96v-416h256v192h128v-192h256v416l96-96 96 96-512 512zm0-416c-35.346 0-64 28.654-64 64s28.654 64 64 64c35.346 0 64-28.654 64-64s-28.654-64-64-64z"/><glyph unicode="" d="M1024 352l-192 192v288h-128v-160l-192 192-512-512v-32h128v-320h320v192h128v-192h320v320h128z"/><glyph unicode="" d="M0-64h512v1024h-512v-1024zm320 896h128v-128h-128v128zm0-256h128v-128h-128v128zm0-256h128v-128h-128v128zm-256 512h128v-128h-128v128zm0-256h128v-128h-128v128zm0-256h128v-128h-128v128zm512 320h448v-64h-448zm0-704h128v256h192v-256h128v576h-448z"/><glyph unicode="" d="M896 704v128h-896v-704c0-35.346 28.654-64 64-64h864c53.022 0 96 42.978 96 96v544h-128zm-64-576h-768v640h768v-640zm-704 512h640v-64h-640zm384-128h256v-64h-256zm0-128h256v-64h-256zm0-128h192v-64h-192zm-384 256h320v-320h-320z"/><glyph unicode="" d="M864 960c88.364 0 160-71.634 160-160 0-36.02-11.91-69.258-32-96l-64-64-224 224 64 64c26.742 20.09 59.978 32 96 32zm-800-736l-64-288 288 64 592 592-224 224-592-592zm651.578 372.422l-448-448-55.156 55.156 448 448 55.156-55.156z"/><glyph unicode="" d="M384 320l128 64 448 448-64 64-448-448-64-128zm-94.7-227.098c-31.632 66.728-65.666 100.762-132.396 132.394l99.096 272.792 128 77.912 384 384h-192l-384-384-192-640 640 192 384 384v192l-384-384-77.912-128z"/><glyph unicode="" d="M0-64c128 384 463 1024 1024 1024-263-211-384-704-576-704h-192l-192-320h-64z"/><glyph unicode="" d="M1018.17 668.11l-286.058 286.058c-9.334 9.334-21.644 7.234-27.356-4.666l-38.354-79.904 267.198-267.198 79.904 38.354c11.9 5.712 14 18.022 4.666 27.356zm-402.786 156.506l-263.384-21.95c-17.5-2.166-32.08-5.898-37.09-28.752l-.018-.066c-71.422-343.07-314.892-677.848-314.892-677.848l57.374-57.374 271.986 271.99c-5.996 12.53-9.36 26.564-9.36 41.384 0 53.02 42.98 96 96 96s96-42.98 96-96-42.98-96-96-96c-14.82 0-28.852 3.364-41.384 9.36l-271.988-271.986 57.372-57.374s334.778 243.47 677.848 314.892l.066.018c22.854 5.01 26.586 19.59 28.752 37.09l21.95 263.384-273.232 273.232z"/><glyph unicode="" d="M384 960v-96c73.482 0 144.712-14.37 211.716-42.71 64.768-27.394 122.958-66.632 172.948-116.624s89.228-108.18 116.624-172.948c28.342-67.004 42.712-138.238 42.712-211.718h96c0 353.46-286.54 640-640 640zm0-192v-96c94.022 0 182.418-36.614 248.9-103.098 66.486-66.484 103.1-154.878 103.1-248.902h96c0 247.422-200.576 448-448 448zm96-192l-64-64-224-64-192-416 25.374-25.374 232.804 232.804c-1.412 5.286-2.178 10.84-2.178 16.57 0 35.346 28.654 64 64 64s64-28.654 64-64-28.654-64-64-64c-5.732 0-11.282.764-16.568 2.178l-232.804-232.804 25.372-25.374 416 192 64 224 64 64-160 160z"/><glyph unicode="" d="M986.51 922.51c-49.988 49.986-131.032 49.986-181.02 0l-172.118-172.118-121.372 121.372-135.764-135.764 106.426-106.426-472.118-472.118c-8.048-8.048-11.468-18.958-10.3-29.456h-.244v-160c0-17.674 14.328-32 32-32h164c9.212 0 18.426 3.516 25.456 10.544l472.118 472.118 106.426-106.426 135.764 135.764-121.372 121.372 172.118 172.118c49.986 49.988 49.986 131.032 0 181.02zm-813.42-922.51h-109.09v109.09l469.574 469.572 109.088-109.088-469.572-469.574z"/><glyph unicode="" d="M864.626 486.838c-65.754 183.44-205.11 348.15-352.626 473.162-147.516-125.012-286.87-289.722-352.626-473.162-40.664-113.436-44.682-236.562 12.584-345.4 65.846-125.14 198.632-205.438 340.042-205.438s274.196 80.298 340.04 205.44c57.27 108.838 53.25 231.962 12.586 345.398zm-125.862-285.794c-43.802-83.252-132.812-137.044-226.764-137.044-55.12 0-108.524 18.536-152.112 50.652 13.242-1.724 26.632-2.652 40.112-2.652 117.426 0 228.668 67.214 283.402 171.242 44.878 85.292 40.978 173.848 23.882 244.338 14.558-28.15 26.906-56.198 36.848-83.932 22.606-63.062 40.024-156.34-5.368-242.604z"/><glyph unicode="" d="M1024 384v384h-192v64c0 35.2-28.8 64-64 64h-704c-35.2 0-64-28.8-64-64v-192c0-35.2 28.8-64 64-64h704c35.2 0 64 28.8 64 64v64h128v-256h-576v-128h-32c-17.674 0-32-14.326-32-32v-320c0-17.674 14.326-32 32-32h128c17.674 0 32 14.326 32 32v320c0 17.674-14.326 32-32 32h-32v64h576zm-256 384h-704v64h704v-64z"/><glyph unicode="" d="M959.884 832l.116-.116v-767.77l-.116-.116h-895.77l-.114.116v767.772l.114.114h895.77zm.116 64h-896c-35.2 0-64-28.8-64-64v-768c0-35.2 28.8-64 64-64h896c35.2 0 64 28.8 64 64v768c0 35.2-28.8 64-64 64zm-128-224c0-53.02-42.98-96-96-96s-96 42.98-96 96 42.98 96 96 96 96-42.98 96-96zm64-544h-768v128l224 384 256-320h64l224 192z"/><glyph unicode="" d="M1088 832h-64v64c0 35.2-28.8 64-64 64h-896c-35.2 0-64-28.8-64-64v-768c0-35.2 28.8-64 64-64h64v-64c0-35.2 28.8-64 64-64h896c35.2 0 64 28.8 64 64v768c0 35.2-28.8 64-64 64zm-960-64v-640h-63.886l-.114.116v767.77l.114.114h895.77l.116-.116v-63.884h-768c-35.2 0-64-28.8-64-64zm960-767.884l-.116-.116h-895.77l-.114.116v767.77l.114.114h895.77l.116-.116v-767.768zm-128 607.884c0-53.02-42.98-96-96-96s-96 42.98-96 96 42.98 96 96 96 96-42.98 96-96zm64-544h-768v128l224 384 256-320h64l224 192z" horiz-adv-x="1152"/><glyph unicode="" d="M304 352c0-114.876 93.124-208 208-208s208 93.124 208 208-93.124 208-208 208-208-93.124-208-208zm656 352h-224c-16 64-32 128-96 128h-256c-64 0-80-64-96-128h-224c-35.2 0-64-28.8-64-64v-576c0-35.2 28.8-64 64-64h896c35.2 0 64 28.8 64 64v576c0 35.2-28.8 64-64 64zm-448-636c-156.85 0-284 127.148-284 284 0 156.85 127.15 284 284 284 156.852 0 284-127.15 284-284 0-156.852-127.146-284-284-284zm448 444h-128v64h128v-64z"/><glyph unicode="" d="M288 384h-64v-448h64c17.6 0 32 14.4 32 32v384c0 17.6-14.4 32-32 32zm448 0c-17.602 0-32-14.4-32-32v-384c0-17.6 14.398-32 32-32h64v448h-64zm288 64c0 282.77-229.23 512-512 512s-512-229.23-512-512c0-61.412 10.83-120.29 30.656-174.848-19.478-33.206-30.656-71.87-30.656-113.152 0-112.846 83.448-206.188 192-221.716v443.418c-31.914-4.566-61.664-15.842-87.754-32.378-5.392 26.718-8.246 54.364-8.246 82.676 0 229.75 186.25 416 416 416s416-186.25 416-416c0-28.314-2.83-55.968-8.22-82.696-26.1 16.546-55.854 27.848-87.78 32.418v-443.44c108.548 15.532 192 108.874 192 221.714 0 41.274-11.178 79.934-30.648 113.138 19.828 54.566 30.648 113.452 30.648 174.866z"/><glyph unicode="" d="M960 960h64v-736c0-88.366-100.29-160-224-160s-224 71.634-224 160c0 88.368 100.29 160 224 160 62.684 0 119.342-18.4 160-48.04v368.04l-512-113.778v-494.222c0-88.366-100.288-160-224-160s-224 71.634-224 160c0 88.368 100.288 160 224 160 62.684 0 119.342-18.4 160-48.04v624.04l576 128z"/><glyph unicode="" d="M981.188 799.892c-143.632 20.65-302.332 32.108-469.186 32.108-166.86 0-325.556-11.458-469.194-32.108-27.53-107.726-42.808-226.75-42.808-351.892 0-125.14 15.278-244.166 42.808-351.89 143.638-20.652 302.336-32.11 469.194-32.11 166.854 0 325.552 11.458 469.186 32.11 27.532 107.724 42.812 226.75 42.812 351.89 0 125.142-15.28 244.166-42.812 351.892zm-597.186-543.892v384l320-192-320-192z"/><glyph unicode="" d="M0 832v-768h1024v768h-1024zm192-704h-128v128h128v-128zm0 256h-128v128h128v-128zm0 256h-128v128h128v-128zm576-512h-512v640h512v-640zm192 0h-128v128h128v-128zm0 256h-128v128h128v-128zm0 256h-128v128h128v-128zm-576 0v-384l256 192z"/><glyph unicode="" d="M384 672c0 88.366 71.634 160 160 160s160-71.634 160-160-71.634-160-160-160-160 71.634-160 160zm-384 0c0 88.366 71.634 160 160 160s160-71.634 160-160-71.634-160-160-160-160 71.634-160 160zm768-320v96c0 35.2-28.8 64-64 64h-640c-35.2 0-64-28.8-64-64v-320c0-35.2 28.8-64 64-64h640c35.2 0 64 28.8 64 64v96l256-160v448l-256-160zm-128-160h-512v192h512v-192z"/><glyph unicode="" d="M864 768h-512c-88 0-160-72-160-160v-512c0-88 72-160 160-160h512c88 0 160 72 160 160v512c0 88-72 160-160 160zm-448-704c-53.02 0-96 42.98-96 96s42.98 96 96 96 96-42.98 96-96-42.98-96-96-96zm0 384c-53.02 0-96 42.98-96 96s42.98 96 96 96 96-42.98 96-96-42.98-96-96-96zm192-192c-53.02 0-96 42.98-96 96s42.98 96 96 96 96-42.98 96-96-42.98-96-96-96zm192-192c-53.02 0-96 42.98-96 96s42.98 96 96 96 96-42.98 96-96-42.98-96-96-96zm0 384c-53.02 0-96 42.98-96 96s42.98 96 96 96 96-42.98 96-96-42.98-96-96-96zm28.76 384c-14.93 72.804-79.71 128-156.76 128h-512c-88 0-160-72-160-160v-512c0-77.046 55.196-141.83 128-156.76v636.76c0 35.2 28.8 64 64 64h636.76z"/><glyph unicode="" d="M964.73 781.196c-93.902 109.45-233.21 178.804-388.73 178.804-282.77 0-512-229.23-512-512s229.23-512 512-512c155.52 0 294.828 69.356 388.728 178.804l-324.728 333.196 324.73 333.196zm-260.73 58.202c39.432 0 71.398-31.964 71.398-71.398 0-39.432-31.966-71.398-71.398-71.398s-71.398 31.966-71.398 71.398c0 39.432 31.966 71.398 71.398 71.398z"/><glyph unicode="" d="M817.57 611.85c-193.566 143.858-260.266 259.018-305.566 348.148l-.004.002v-.002c-45.296-89.13-112-204.292-305.566-348.148-330.036-245.286-19.376-587.668 253.758-399.224-17.796-116.93-78.53-202.172-140.208-238.882v-37.744h384.032v37.74c-61.682 36.708-122.41 121.954-140.212 238.884 273.136-188.446 583.8 153.94 253.766 399.226z"/><glyph unicode="" d="M786.832 567.228c-59.032 0-112.086-24.596-149.852-64.694-15.996-16.984-43.762-37.112-73.8-54.81 14.11 53.868 58.676 121.7 89.628 151.456 39.64 38.17 63.984 91.83 63.984 151.5.006 114.894-91.476 208.096-204.788 209.32-113.32-1.222-204.796-94.426-204.796-209.318 0-59.672 24.344-113.33 63.986-151.5 30.954-29.756 75.52-97.588 89.628-151.456-30.042 17.7-57.806 37.826-73.8 54.81-37.768 40.098-90.82 64.694-149.85 64.694-114.386 0-207.08-93.664-207.08-209.328 0-115.638 92.692-209.338 207.08-209.338 59.042 0 112.082 25.356 149.85 65.452 16.804 17.872 46.444 40.138 78.292 58.632-3.002-147.692-73.532-256.168-145.318-298.906v-37.742h384.014v37.74c-71.792 42.736-142.32 151.216-145.32 298.906 31.852-18.494 61.488-40.768 78.292-58.632 37.766-40.094 90.808-65.452 149.852-65.452 114.386 0 207.078 93.7 207.078 209.338-.002 115.664-92.692 209.328-207.08 209.328z"/><glyph unicode="" d="M512 960l-320-512 320-512 320 512z"/><glyph unicode="" d="M1024 530.744c0 200.926-58.792 363.938-131.482 365.226l.872.03h-82.942s-194.8-146.336-475.23-203.754c-8.56-45.292-14.03-99.274-14.03-161.502s5.466-116.208 14.03-161.5c280.428-57.418 475.23-203.756 475.23-203.756h82.942l-.872.032c72.696 1.288 131.482 164.298 131.482 365.224zm-159.176-309.996c-9.382 0-19.532 9.742-24.746 15.548-12.63 14.064-24.792 35.96-35.188 63.328-23.256 61.232-36.066 143.31-36.066 231.124 0 87.81 12.81 169.89 36.066 231.122 10.394 27.368 22.562 49.266 35.188 63.328 5.214 5.812 15.364 15.552 24.746 15.552 9.38 0 19.536-9.744 24.744-15.552 12.634-14.064 24.796-35.958 35.188-63.328 23.258-61.23 36.068-143.312 36.068-231.122 0-87.804-12.81-169.888-36.068-231.124-10.39-27.368-22.562-49.264-35.188-63.328-5.208-5.806-15.36-15.548-24.744-15.548zm-613.012 309.996c0 51.95 3.81 102.43 11.052 149.094-47.372-6.554-88.942-10.324-140.34-10.324h-67.058l-55.466-94.686v-88.17l55.46-94.686h67.06c51.398 0 92.968-3.774 140.34-10.324-7.236 46.664-11.048 97.146-11.048 149.096zm116.338-212.916l-127.998 24.51 81.842-321.544c4.236-16.634 20.744-25.038 36.686-18.654l118.556 47.452c15.944 6.376 22.328 23.964 14.196 39.084l-123.282 229.152zm496.674 93.442c-3.618 0-7.528 3.754-9.538 5.992-4.87 5.42-9.556 13.86-13.562 24.408-8.962 23.6-13.9 55.234-13.9 89.078s4.938 65.478 13.9 89.078c4.006 10.548 8.696 18.988 13.562 24.408 2.01 2.24 5.92 5.994 9.538 5.994 3.616 0 7.53-3.756 9.538-5.994 4.87-5.42 9.556-13.858 13.56-24.408 8.964-23.598 13.902-55.234 13.902-89.078 0-33.842-4.938-65.478-13.902-89.078-4.004-10.548-8.696-18.988-13.56-24.408-2.008-2.238-5.92-5.992-9.538-5.992z"/><glyph unicode="" d="M640 384c105.87 0 201.87-43.066 271.402-112.598l-90.468-90.468c-46.354 46.356-110.356 75.066-180.934 75.066s-134.578-28.71-180.934-75.066l-90.468 90.468c69.532 69.532 165.532 112.598 271.402 112.598zm-452.548 68.548c120.88 120.88 281.598 187.452 452.548 187.452s331.668-66.572 452.55-187.452l-90.51-90.508c-96.706 96.704-225.28 149.96-362.04 149.96-136.762 0-265.334-53.256-362.038-149.962l-90.51 90.51zm801.332 373.014c106.702-45.132 202.516-109.728 284.782-191.996l-90.508-90.508c-145.056 145.056-337.92 224.942-543.058 224.942-205.14 0-398-79.886-543.058-224.942l-90.51 90.51c82.268 82.266 178.082 146.862 284.784 191.994 110.504 46.738 227.852 70.438 348.784 70.438s238.278-23.7 348.784-70.438zm-412.784-761.562c0 35.346 28.654 64 64 64s64-28.654 64-64c0-35.346-28.654-64-64-64s-64 28.654-64 64z" horiz-adv-x="1280"/><glyph unicode="" d="M1024 448c0 282.77-229.23 512-512 512s-512-229.23-512-512c0-220.054 138.836-407.664 333.686-480.068l-13.686-31.932h384l-13.686 31.932c194.85 72.404 333.686 260.014 333.686 480.068zm-537.21-122.826c-22.808 9.788-38.79 32.436-38.79 58.826 0 35.346 28.654 64 64 64s64-28.654 64-64c0-26.39-15.978-49.044-38.786-58.834l-25.214 58.834-25.21-58.826zm51.478-2.466c58.092 12.118 101.732 63.602 101.732 125.292 0 70.694-57.306 128-128 128-70.692 0-128-57.306-128-128 0-61.692 43.662-113.122 101.76-125.228l-74.624-174.122c-91.23 39.15-155.136 129.784-155.136 235.35 0 141.384 114.616 268 256 268s256-126.616 256-268c0-105.566-63.906-196.2-155.136-235.35l-74.596 174.058zm150.18-350.416l-73.924 172.486c126.446 42.738 217.476 162.346 217.476 303.222 0 176.73-143.268 320-320 320-176.73 0-320-143.27-320-320 0-140.876 91.03-260.484 217.476-303.222l-73.924-172.486c-159.594 68.488-271.386 227.034-271.386 411.708 0 247.332 200.502 459.834 447.834 459.834s447.834-212.502 447.834-459.834c0-184.674-111.792-343.22-271.386-411.708z"/><glyph unicode="" d="M384 448c0 70.692 57.308 128 128 128s128-57.308 128-128c0-70.692-57.308-128-128-128s-128 57.308-128 128zm280.348 281.474c99.852-54.158 167.652-159.898 167.652-281.474s-67.8-227.316-167.652-281.474c44.066 70.126 71.652 170.27 71.652 281.474s-27.586 211.348-71.652 281.474zm-376.348-281.474c0-111.204 27.584-211.348 71.652-281.474-99.852 54.16-167.652 159.898-167.652 281.474s67.8 227.314 167.652 281.474c-44.068-70.126-71.652-170.27-71.652-281.474zm-192 0c0-171.9 54.404-326.184 140.652-431.722-142.302 90.948-236.652 250.314-236.652 431.722s94.35 340.774 236.652 431.722c-86.248-105.538-140.652-259.822-140.652-431.722zm691.352 431.72c142.298-90.946 236.648-250.312 236.648-431.72s-94.35-340.774-236.648-431.72c86.244 105.536 140.648 259.82 140.648 431.72s-54.404 326.184-140.648 431.72z"/><glyph unicode="" d="M480 256c88.366 0 160 71.634 160 160v384c0 88.366-71.634 160-160 160s-160-71.634-160-160v-384c0-88.366 71.636-160 160-160zm224 256v-96c0-123.71-100.29-224-224-224-123.712 0-224 100.29-224 224v96h-64v-96c0-148.238 112.004-270.3 256-286.22v-129.78h-128v-64h320v64h-128v129.78c143.994 15.92 256 137.982 256 286.22v96h-64z"/><glyph unicode="" d="M896 832v-832h-672c-53.026 0-96 42.98-96 96s42.974 96 96 96h608v768h-640c-70.398 0-128-57.6-128-128v-768c0-70.4 57.602-128 128-128h768v896h-64zm-671.944-704h-.056c-17.672 0-32-14.326-32-32s14.328-32 32-32l.056.002v-.002h607.89v64h-607.89z"/><glyph unicode="" d="M224 832h-192c-17.6 0-32-14.4-32-32v-704c0-17.6 14.4-32 32-32h192c17.6 0 32 14.4 32 32v704c0 17.6-14.4 32-32 32zm-32-192h-128v64h128v-64zm352 192h-192c-17.6 0-32-14.4-32-32v-704c0-17.6 14.4-32 32-32h192c17.6 0 32 14.4 32 32v704c0 17.6-14.4 32-32 32zm-32-192h-128v64h128v-64zm253.088 142.52l-171.464-86.394c-15.716-7.918-22.096-27.258-14.178-42.976l287.978-571.548c7.918-15.718 27.258-22.098 42.976-14.178l171.464 86.392c15.716 7.92 22.096 27.26 14.178 42.974l-287.978 571.55c-7.92 15.718-27.26 22.1-42.976 14.18zm162.912-686.52c0-17.673-14.327-32-32-32s-32 14.327-32 32c0 17.673 14.327 32 32 32s32-14.327 32-32z" horiz-adv-x="1152"/><glyph unicode="" d="M1024 0v64h-64v384h64v64h-192v-64h64v-384h-192v384h64v64h-192v-64h64v-384h-192v384h64v64h-192v-64h64v-384h-192v384h64v64h-192v-64h64v-384h-64v-64h-64v-64h1088v64h-64zm-512 960h64l512-320v-64h-1088v64l512 320z" horiz-adv-x="1088"/><glyph unicode="" d="M864 960h-768c-52.8 0-96-43.2-96-96v-832c0-52.8 43.2-96 96-96h768c52.8 0 96 43.2 96 96v832c0 52.8-43.2 96-96 96zm-32-896h-704v768h704v-768zm-576 448h448v-64h-448zm0-128h448v-64h-448zm0-128h448v-64h-448zm0 384h448v-64h-448z"/><glyph unicode="" d="M864 960h-768c-52.8 0-96-43.2-96-96v-832c0-52.8 43.2-96 96-96h768c52.8 0 96 43.2 96 96v832c0 52.8-43.2 96-96 96zm-32-896h-704v768h704v-768zm-576 320h448v-64h-448zm0-128h448v-64h-448zm64 416c0 53.019 42.981 96 96 96s96-42.981 96-96-42.981-96-96-96-96 42.981-96 96zm160-96h-128c-52.8 0-96-28.8-96-64v-64h320v64c0 35.2-43.2 64-96 64z"/><glyph unicode="" d="M917.806 730.924c-22.212 30.292-53.174 65.7-87.178 99.704s-69.412 64.964-99.704 87.178c-51.574 37.82-76.592 42.194-90.924 42.194h-496c-44.112 0-80-35.888-80-80v-864c0-44.112 35.888-80 80-80h736c44.112 0 80 35.888 80 80v624c0 14.332-4.372 39.35-42.194 90.924zm-132.432 54.45c30.7-30.7 54.8-58.398 72.58-81.374h-153.954v153.946c22.984-17.78 50.678-41.878 81.374-72.572zm110.626-769.374c0-8.672-7.328-16-16-16h-736c-8.672 0-16 7.328-16 16v864c0 8.672 7.328 16 16 16 0 0 495.956.002 496 0v-224c0-17.672 14.326-32 32-32h224v-624z"/><glyph unicode="" d="M917.806 602.924c-22.21 30.292-53.174 65.7-87.178 99.704s-69.412 64.964-99.704 87.178c-51.574 37.82-76.592 42.194-90.924 42.194h-368c-44.114 0-80-35.888-80-80v-736c0-44.112 35.886-80 80-80h608c44.112 0 80 35.888 80 80v496c0 14.332-4.372 39.35-42.194 90.924zm-132.432 54.45c30.7-30.7 54.8-58.398 72.58-81.374h-153.954v153.946c22.982-17.78 50.678-41.878 81.374-72.572zm110.626-641.374c0-8.672-7.328-16-16-16h-608c-8.672 0-16 7.328-16 16v736c0 8.672 7.328 16 16 16 0 0 367.956.002 368 0v-224c0-17.672 14.324-32 32-32h224v-496zm-293.076 901.804c-51.574 37.822-76.592 42.196-90.924 42.196h-368c-44.112 0-80-35.888-80-80v-736c0-38.632 27.528-70.958 64-78.39v814.39c0 8.672 7.328 16 16 16h486.876c-9.646 7.92-19.028 15.26-27.952 21.804z"/><glyph unicode="" d="M917.806 730.924c-22.212 30.292-53.174 65.7-87.178 99.704s-69.412 64.964-99.704 87.178c-51.574 37.82-76.592 42.194-90.924 42.194h-496c-44.112 0-80-35.888-80-80v-864c0-44.112 35.888-80 80-80h736c44.112 0 80 35.888 80 80v624c0 14.332-4.372 39.35-42.194 90.924zm-132.432 54.45c30.7-30.7 54.8-58.398 72.58-81.374h-153.954v153.946c22.984-17.78 50.678-41.878 81.374-72.572zm110.626-769.374c0-8.672-7.328-16-16-16h-736c-8.672 0-16 7.328-16 16v864c0 8.672 7.328 16 16 16 0 0 495.956.002 496 0v-224c0-17.672 14.326-32 32-32h224v-624zm-160 112h-448c-17.672 0-32 14.326-32 32s14.328 32 32 32h448c17.674 0 32-14.326 32-32s-14.326-32-32-32zm0 128h-448c-17.672 0-32 14.326-32 32s14.328 32 32 32h448c17.674 0 32-14.326 32-32s-14.326-32-32-32zm0 128h-448c-17.672 0-32 14.326-32 32s14.328 32 32 32h448c17.674 0 32-14.326 32-32s-14.326-32-32-32z"/><glyph unicode="" d="M832 64h-640v128l192 320 263-320 185 128v-256zm0 416c0-53.02-42.98-96-96-96-53.022 0-96 42.98-96 96s42.978 96 96 96c53.02 0 96-42.98 96-96zm85.806 250.924c-22.212 30.292-53.174 65.7-87.178 99.704s-69.412 64.964-99.704 87.178c-51.574 37.82-76.592 42.194-90.924 42.194h-496c-44.112 0-80-35.888-80-80v-864c0-44.112 35.888-80 80-80h736c44.112 0 80 35.888 80 80v624c0 14.332-4.372 39.35-42.194 90.924zm-132.432 54.45c30.7-30.7 54.8-58.398 72.58-81.374h-153.954v153.946c22.984-17.78 50.678-41.878 81.374-72.572zm110.626-769.374c0-8.672-7.328-16-16-16h-736c-8.672 0-16 7.328-16 16v864c0 8.672 7.328 16 16 16 0 0 495.956.002 496 0v-224c0-17.672 14.326-32 32-32h224v-624z"/><glyph unicode="" d="M917.806 730.924c-22.21 30.292-53.174 65.7-87.178 99.704s-69.412 64.964-99.704 87.178c-51.574 37.82-76.592 42.194-90.924 42.194h-496c-44.112 0-80-35.888-80-80v-864c0-44.112 35.886-80 80-80h736c44.112 0 80 35.888 80 80v624c0 14.332-4.372 39.35-42.194 90.924zm-132.432 54.45c30.7-30.7 54.8-58.398 72.58-81.374h-153.954v153.946c22.982-17.78 50.678-41.878 81.374-72.572zm110.626-769.374c0-8.672-7.328-16-16-16h-736c-8.672 0-16 7.328-16 16v864c0 8.672 7.328 16 16 16 0 0 495.956.002 496 0v-224c0-17.672 14.324-32 32-32h224v-624zm-139.712 552.748c-7.414 6.08-17.164 8.514-26.562 6.632l-320-64c-14.958-2.994-25.726-16.126-25.726-31.38v-236.876c-18.832 8.174-40.678 12.876-64 12.876-70.692 0-128-42.98-128-96s57.308-96 128-96 128 42.98 128 96v229.766l256 51.202v-133.842c-18.832 8.174-40.678 12.876-64 12.876-70.692 0-128-42.98-128-96s57.308-96 128-96 128 42.98 128 96v319.998c0 9.586-4.298 18.668-11.712 24.748z"/><glyph unicode="" d="M384 576l320-224-320-224v448zm533.806 154.924c-22.212 30.292-53.174 65.7-87.178 99.704s-69.412 64.964-99.704 87.178c-51.574 37.82-76.592 42.194-90.924 42.194h-496c-44.112 0-80-35.888-80-80v-864c0-44.112 35.888-80 80-80h736c44.112 0 80 35.888 80 80v624c0 14.332-4.372 39.35-42.194 90.924zm-132.432 54.45c30.7-30.7 54.8-58.398 72.58-81.374h-153.954v153.946c22.984-17.78 50.678-41.878 81.374-72.572zm110.626-769.374c0-8.672-7.328-16-16-16h-736c-8.672 0-16 7.328-16 16v864c0 8.672 7.328 16 16 16 0 0 495.956.002 496 0v-224c0-17.672 14.326-32 32-32h224v-624z"/><glyph unicode="" d="M917.806 730.924c-22.208 30.292-53.174 65.7-87.178 99.704s-69.412 64.964-99.704 87.178c-51.574 37.82-76.594 42.194-90.924 42.194h-496c-44.112 0-80-35.888-80-80v-864c0-44.112 35.882-80 80-80h736c44.112 0 80 35.888 80 80v624c0 14.332-4.372 39.35-42.194 90.924zm-132.432 54.45c30.7-30.7 54.8-58.398 72.58-81.374h-153.954v153.946c22.98-17.78 50.678-41.878 81.374-72.572zm110.626-769.374c0-8.672-7.328-16-16-16h-736c-8.672 0-16 7.328-16 16v864c0 8.672 7.328 16 16 16 0 0 495.956.002 496 0v-224c0-17.672 14.32-32 32-32h224v-624zm-640 432h320v-320h-320v320zm320-128l192 128v-320l-192 128z"/><glyph unicode="" d="M917.806 730.924c-22.208 30.292-53.174 65.7-87.178 99.704s-69.412 64.964-99.704 87.178c-51.574 37.82-76.592 42.194-90.924 42.194h-496c-44.112 0-80-35.888-80-80v-864c0-44.112 35.884-80 80-80h736c44.112 0 80 35.888 80 80v624c0 14.332-4.372 39.35-42.194 90.924zm-132.432 54.45c30.7-30.7 54.8-58.398 72.58-81.374h-153.954v153.946c22.98-17.78 50.678-41.878 81.374-72.572zm110.626-769.374c0-8.672-7.328-16-16-16h-736c-8.672 0-16 7.328-16 16v864c0 8.672 7.328 16 16 16 0 0 495.956.002 496 0v-224c0-17.672 14.322-32 32-32h224v-624zm-640 880h128v-64h-128v64zm128-64h128v-64h-128v64zm-128-64h128v-64h-128v64zm128-64h128v-64h-128v64zm-128-64h128v-64h-128v64zm128-64h128v-64h-128v64zm-128-64h128v-64h-128v64zm128-64h128v-64h-128v64zm-128-336c0-26.4 21.6-48 48-48h160c26.4 0 48 21.6 48 48v160c0 26.4-21.6 48-48 48h-80v64h-128v-272zm192 80v-64h-128v64h128z"/><glyph unicode="" d="M640 704v256h-448l-192-192v-576h384v-256h640v768h-384zm-448 165.49v-101.49h-101.49l101.49 101.49zm-128-613.49v448h192v192h320v-192l-192-192v-256h-320zm512 357.49v-101.49h-101.49l101.49 101.49zm384-613.49h-512v448h192v192h320v-640z"/><glyph unicode="" d="M704 832h-128v64c0 35.2-28.8 64-64 64h-128c-35.204 0-64-28.8-64-64v-64h-128v-128h512v128zm-192 0h-128v63.886l.114.114h127.768l.118-.114v-63.886zm320-192v160c0 17.6-14.4 32-32 32h-64v-64h32v-128h-192l-192-192v-256h-256v576h32v64h-64c-17.602 0-32-14.4-32-32v-640c0-17.6 14.398-32 32-32h288v-192h640v704h-192zm-256-90.51v-101.49h-101.49l101.49 101.49zm384-549.49h-512v384h192v192h320v-576z"/><glyph unicode="" d="M1024 640l-512 256-512-256 512-256 512 256zm-512 171.03l342.058-171.03-342.058-171.03-342.058 171.03 342.058 171.03zm409.444-311.752l102.556-51.278-512-256-512 256 102.556 51.278 409.444-204.722zm0-192l102.556-51.278-512-256-512 256 102.556 51.278 409.444-204.722z"/><glyph unicode="" d="M448 832l128-128h448v-704h-1024v832z"/><glyph unicode="" d="M832 0l192 512h-832l-192-512zm-704 576l-128-576v832h288l128-128h416v-128z"/><glyph unicode="" d="M576 704l-128 128h-448v-832h1024v704h-448zm128-448h-128v-128h-128v128h-128v128h128v128h128v-128h128v-128z"/><glyph unicode="" d="M576 704l-128 128h-448v-832h1024v704h-448zm128-448h-384v128h384v-128z"/><glyph unicode="" d="M576 704l-128 128h-448v-832h1024v704h-448zm-64-608l-224 224h160v256h128v-256h160l-224-224z"/><glyph unicode="" d="M576 704l-128 128h-448v-832h1024v704h-448zm-64-224l224-224h-160v-256h-128v256h-160l224 224z"/><glyph unicode="" d="M976 960h-384c-26.4 0-63.274-15.274-81.942-33.942l-476.116-476.116c-18.668-18.668-18.668-49.214 0-67.882l412.118-412.118c18.668-18.668 49.214-18.668 67.882 0l476.118 476.118c18.666 18.666 33.94 55.54 33.94 81.94v384c0 26.4-21.6 48-48 48zm-240-384c-53.02 0-96 42.98-96 96s42.98 96 96 96 96-42.98 96-96-42.98-96-96-96z"/><glyph unicode="" d="M1232 960h-384c-26.4 0-63.274-15.274-81.942-33.942l-476.116-476.116c-18.668-18.668-18.668-49.214 0-67.882l412.118-412.118c18.668-18.668 49.214-18.668 67.882 0l476.118 476.118c18.666 18.666 33.94 55.54 33.94 81.94v384c0 26.4-21.6 48-48 48zm-240-384c-53.02 0-96 42.98-96 96s42.98 96 96 96 96-42.98 96-96-42.98-96-96-96zm-864-160l544 544h-80c-26.4 0-63.274-15.274-81.942-33.942l-476.116-476.116c-18.668-18.668-18.668-49.214 0-67.882l412.118-412.118c18.668-18.668 49.214-18.668 67.882 0l30.058 30.058-416 416z" horiz-adv-x="1280"/><glyph unicode="" d="M0 832h128v-640h-128zm192 0h64v-640h-64zm128 0h64v-640h-64zm192 0h64v-640h-64zm256 0h64v-640h-64zm192 0h64v-640h-64zm-320 0h32v-640h-32zm-192 0h32v-640h-32zm416 0h32v-640h-32zm-864-704h64v-64h-64zm192 0h64v-64h-64zm128 0h64v-64h-64zm320 0h64v-64h-64zm320 0h64v-64h-64zm-192 0h128v-64h-128zm-320 0h128v-64h-128z"/><glyph unicode="" d="M320 896h-256v-256h256v256zm64 64v-384h-384v384h384zm-256-128h128v-128h-128zm832 64h-256v-256h256v256zm64 64v-384h-384v384h384zm-256-128h128v-128h-128zm-448-576h-256v-256h256v256zm64 64v-384h-384v384h384zm-256-128h128v-128h-128zm320 768h64v-64h-64zm64-64h64v-64h-64zm-64-64h64v-64h-64zm64-64h64v-64h-64zm-64-64h64v-64h-64zm64-64h64v-64h-64zm-64-64h64v-64h-64zm0-128h64v-64h-64zm64-64h64v-64h-64zm-64-64h64v-64h-64zm64-64h64v-64h-64zm-64-64h64v-64h-64zm64-64h64v-64h-64zm-64-64h64v-64h-64zm64-64h64v-64h-64zm448 448h64v-64h-64zm-896 0h64v-64h-64zm64 64h64v-64h-64zm-128 0h64v-64h-64zm256 0h64v-64h-64zm64-64h64v-64h-64zm64 64h64v-64h-64zm192-64h64v-64h-64zm64 64h64v-64h-64zm64-64h64v-64h-64zm64 64h64v-64h-64zm64-64h64v-64h-64zm64 64h64v-64h-64zm64-192h64v-64h-64zm-384 0h64v-64h-64zm64 64h64v-64h-64zm64-64h64v-64h-64zm128 0h64v-64h-64zm64 64h64v-64h-64zm64-192h64v-64h-64zm-384 0h64v-64h-64zm64 64h64v-64h-64zm128 0h64v-64h-64zm64-64h64v-64h-64zm64 64h64v-64h-64zm64-192h64v-64h-64zm-320 64h64v-64h-64zm64-64h64v-64h-64zm64 64h64v-64h-64zm64-64h64v-64h-64zm-192-64h64v-64h-64zm128 0h64v-64h-64zm128 0h64v-64h-64z"/><glyph unicode="" d="M575.996 640l127.998-127.998-255.994-255.994-127.998 127.998zm425.53 22.496l-73.516 73.516-32.008-32.008c-16.378-16.38-39.01-26.51-64-26.51-49.988 0-90.514 40.522-90.514 90.51 0 25.002 10.14 47.638 26.534 64.018l31.988 31.986-73.518 73.516c-29.968 29.968-79.008 29.968-108.976 0l-595.04-595.038c-29.966-29.968-29.966-79.01 0-108.976l73.52-73.518 31.962 31.964c16.382 16.406 39.03 26.552 64.044 26.552 49.988 0 90.51-40.524 90.51-90.51 0-25.006-10.14-47.64-26.534-64.022l-31.984-31.986 73.516-73.518c29.966-29.966 79.008-29.966 108.976 0l595.04 595.04c29.964 29.976 29.964 79.016 0 108.984zm-553.524-534.492l-256 256 384 384 256-256-384-384z"/><glyph unicode="" d="M384 32c0-53.019-42.981-96-96-96s-96 42.981-96 96 42.981 96 96 96 96-42.981 96-96zm640 0c0-53.019-42.981-96-96-96s-96 42.981-96 96 42.981 96 96 96 96-42.981 96-96zm0 416v384h-768c0 35.346-28.654 64-64 64h-192v-64h128l48.074-412.054c-29.294-23.458-48.074-59.5-48.074-99.946 0-70.696 57.308-128 128-128h768v64h-768c-35.346 0-64 28.654-64 64l.016.656 831.984 127.344z"/><glyph unicode="" d="M480 896c-265.096 0-480-214.904-480-480 0-265.098 214.904-480 480-480 265.098 0 480 214.902 480 480 0 265.096-214.902 480-480 480zm0-864c-212.078 0-384 171.922-384 384s171.922 384 384 384 384-171.922 384-384-171.922-384-384-384zm32 416v128h128v64h-128v64h-64v-64h-128v-256h128v-128h-128v-64h128v-64h64v64h128.002l-.002 256h-128zm-64 0h-64v128h64v-128zm128.002-192h-64.002v128h64.002v-128z"/><glyph unicode="" d="M480 896c-265.096 0-480-214.904-480-480s214.904-480 480-480c265.098 0 480 214.902 480 480s-214.902 480-480 480zm0-864c-212.078 0-384 171.922-384 384s171.922 384 384 384c212.076 0 384-171.922 384-384s-171.924-384-384-384zm190.824 283.66c-15.27 8.884-34.862 3.708-43.75-11.57-17.256-29.662-49.088-48.09-83.074-48.09h-128c-41.716 0-77.286 26.754-90.496 64h154.496c17.672 0 32 14.326 32 32s-14.328 32-32 32h-160v64h160c17.672 0 32 14.328 32 32s-14.328 32-32 32h-154.496c13.21 37.246 48.78 64 90.496 64h128c33.986 0 65.818-18.426 83.074-48.09 8.888-15.276 28.478-20.456 43.752-11.568 15.276 8.888 20.456 28.476 11.568 43.752-28.672 49.288-81.702 79.906-138.394 79.906h-128c-77.268 0-141.914-55.056-156.78-128h-35.22c-17.672 0-32-14.328-32-32s14.328-32 32-32h32v-64h-32c-17.672 0-32-14.326-32-32s14.328-32 32-32h35.22c14.866-72.944 79.512-128 156.78-128h128c56.692 0 109.72 30.62 138.394 79.91 8.888 15.276 3.708 34.864-11.57 43.75z"/><glyph unicode="" d="M480 896c-265.096 0-480-214.904-480-480s214.904-480 480-480c265.098 0 480 214.902 480 480s-214.902 480-480 480zm0-864c-212.078 0-384 171.922-384 384s171.922 384 384 384c212.074 0 384-171.922 384-384s-171.926-384-384-384zm128 224h-224v128h96c17.672 0 32 14.326 32 32s-14.328 32-32 32h-96v32c0 52.934 43.066 96 96 96 34.17 0 66.042-18.404 83.18-48.03 8.85-15.298 28.426-20.526 43.722-11.676 15.296 8.848 20.526 28.424 11.676 43.722-28.538 49.336-81.638 79.984-138.578 79.984-88.224 0-160-71.776-160-160v-32h-32c-17.672 0-32-14.326-32-32s14.328-32 32-32h32v-192h288c17.674 0 32 14.326 32 32s-14.326 32-32 32z"/><glyph unicode="" d="M480 896c-265.096 0-480-214.904-480-480s214.904-480 480-480c265.098 0 480 214.902 480 480s-214.902 480-480 480zm0-864c-212.078 0-384 171.922-384 384s171.922 384 384 384c212.076 0 384-171.922 384-384s-171.924-384-384-384zm128 352c17.674 0 32 14.326 32 32s-14.326 32-32 32h-68.208l94.832 142.25c9.804 14.704 5.83 34.572-8.876 44.376-14.704 9.802-34.572 5.83-44.376-8.876l-101.372-152.062-101.374 152.062c-9.804 14.706-29.672 18.68-44.376 8.876-14.706-9.804-18.678-29.672-8.876-44.376l94.834-142.25h-68.208c-17.672 0-32-14.326-32-32s14.328-32 32-32h96v-64h-96c-17.672 0-32-14.326-32-32s14.328-32 32-32h96v-96c0-17.674 14.328-32 32-32s32 14.326 32 32v96h96c17.674 0 32 14.326 32 32s-14.326 32-32 32h-96v64h96z"/><glyph unicode="" d="M928 832h-832c-52.8 0-96-43.2-96-96v-576c0-52.8 43.2-96 96-96h832c52.8 0 96 43.2 96 96v576c0 52.8-43.2 96-96 96zm-832-64h832c17.346 0 32-14.654 32-32v-96h-896v96c0 17.346 14.654 32 32 32zm832-640h-832c-17.346 0-32 14.654-32 32v288h896v-288c0-17.346-14.654-32-32-32zm-800 192h64v-128h-64zm128 0h64v-128h-64zm128 0h64v-128h-64z"/><glyph unicode="" d="M384 896h-320c-35.2 0-64-28.8-64-64v-320c0-35.2 28.796-64 64-64h320c35.2 0 64 28.8 64 64v320c0 35.2-28.8 64-64 64zm0-256h-320v64h320v-64zm512 256h-320c-35.204 0-64-28.8-64-64v-832c0-35.2 28.796-64 64-64h320c35.2 0 64 28.8 64 64v832c0 35.2-28.8 64-64 64zm0-576h-320v64h320v-64zm0 192h-320v64h320v-64zm-512-128h-320c-35.2 0-64-28.8-64-64v-320c0-35.2 28.796-64 64-64h320c35.2 0 64 28.8 64 64v320c0 35.2-28.8 64-64 64zm0-256h-128v-128h-64v128h-128v64h128v128h64v-128h128v-64z"/><glyph unicode="" d="M512 960c-282.77 0-512-229.23-512-512s229.23-512 512-512 512 229.23 512 512-229.23 512-512 512zm-192-512c0 106.04 85.96 192 192 192s192-85.96 192-192-85.96-192-192-192-192 85.96-192 192zm605.98-171.476l-177.42 73.49c12.518 30.184 19.44 63.276 19.44 97.986s-6.922 67.802-19.44 97.986l177.42 73.49c21.908-52.822 34.02-110.73 34.02-171.476s-12.114-118.654-34.02-171.476zm-242.502 585.456l-73.49-177.42c-30.184 12.518-63.276 19.44-97.988 19.44s-67.802-6.922-97.986-19.44l-73.49 177.422c52.822 21.904 110.732 34.018 171.476 34.018 60.746 0 118.654-12.114 171.478-34.02zm-585.458-242.504l177.422-73.49c-12.518-30.184-19.442-63.276-19.442-97.986s6.922-67.802 19.44-97.986l-177.42-73.49c-21.906 52.822-34.02 110.73-34.02 171.476s12.114 118.654 34.02 171.476zm242.504-585.456l73.49 177.42c30.184-12.518 63.276-19.44 97.986-19.44s67.802 6.922 97.986 19.44l73.49-177.42c-52.822-21.904-110.73-34.02-171.476-34.02-60.744 0-118.654 12.114-171.476 34.02z"/><glyph unicode="" d="M704 320c-64-64-64-128-128-128s-128 64-192 128-128 128-128 192l128 128s-128 256-192 256l-192-192c0-128 131.5-387.5 256-512s384-256 512-256c0 0 192 128 192 192s-192 256-256 192z"/><glyph unicode="" d="M1017.378 384.006c8.004-55.482 13.216-131.392-11.664-160.446-41.142-48.044-301.712-48.044-301.712 48.042 0 48.398 42.856 80.134 1.712 128.178-40.472 47.262-113.026 48.03-193.714 48.042-80.686-.012-153.242-.78-193.714-48.042-41.142-48.046 1.714-79.78 1.714-128.178 0-96.086-260.57-96.086-301.714-48.044-24.878 29.054-19.668 104.964-11.662 160.446 6.16 37.038 21.724 76.996 71.548 127.994l.002.004c74.738 69.742 187.846 126.738 429.826 127.968v.03c1.344 0 2.664-.01 4-.014 1.338.004 2.656.014 4 .014v-.028c241.98-1.23 355.088-58.226 429.826-127.968l.002-.004c49.824-50.996 65.39-90.954 71.55-127.994z"/><glyph unicode="" d="M192 960v-1024h768v1024h-768zm384-256.33c70.51 0 127.67-57.16 127.67-127.67s-57.16-127.67-127.67-127.67-127.67 57.16-127.67 127.67 57.16 127.67 127.67 127.67zm192-511.67h-384v64c0 70.696 57.306 128 128 128h128c70.696 0 128-57.304 128-128v-64zm-704 704h96v-192h-96v192zm0-256h96v-192h-96v192zm0-256h96v-192h-96v192zm0-256h96v-192h-96v192z"/><glyph unicode="" d="M928 832h-832c-52.8 0-96-43.2-96-96v-640c0-52.8 43.2-96 96-96h832c52.8 0 96 43.2 96 96v640c0 52.8-43.2 96-96 96zm-529.26-422.372l-270.74-210.892v501.642l270.74-290.75zm-222.36 294.372h671.24l-335.62-252-335.62 252zm232.908-305.698l102.712-110.302 102.71 110.302 210.554-270.302h-626.528l210.552 270.302zm215.972 11.326l270.74 290.75v-501.642l-270.74 210.892z"/><glyph unicode="" d="M544 960l-96-96 96-96-224-256h-224l176-176-272-360.616v-39.384h39.384l360.616 272 176-176v224l256 224 96-96 96 96-480 480zm-96-544l-64 64 224 224 64-64-224-224z"/><glyph unicode="" d="M512 960c-176.732 0-320-143.268-320-320 0-320 320-704 320-704s320 384 320 704c0 176.732-143.27 320-320 320zm0-512c-106.04 0-192 85.96-192 192s85.96 192 192 192 192-85.96 192-192-85.96-192-192-192z"/><glyph unicode="" d="M512 960c-176.732 0-320-143.268-320-320 0-320 320-704 320-704s320 384 320 704c0 176.732-143.27 320-320 320zm0-516c-108.248 0-196 87.752-196 196s87.752 196 196 196 196-87.752 196-196-87.752-196-196-196zm-124 196c0 68.483 55.517 124 124 124s124-55.517 124-124-55.517-124-124-124-124 55.517-124 124z"/><glyph unicode="" d="M544.01-64.004c-2.296 0-4.622.25-6.94.764-14.648 3.25-25.07 16.238-25.07 31.24v480h-480c-15.002 0-27.992 10.422-31.24 25.07-3.25 14.646 4.114 29.584 17.708 35.928l960 448c12.196 5.688 26.644 3.144 36.16-6.372 9.516-9.514 12.06-23.966 6.372-36.16l-448-960c-5.342-11.44-16.772-18.47-28.99-18.47zm-367.768 576.004h367.758c17.674 0 32-14.328 32-32v-367.758l349.79 749.546-749.548-349.788z"/><glyph unicode="" d="M512 960c-282.77 0-512-229.23-512-512s229.23-512 512-512 512 229.23 512 512-229.23 512-512 512zm-416-512c0 229.75 186.25 416 416 416 109.574 0 209.232-42.386 283.534-111.628l-411.534-176.372-176.372-411.534c-69.242 74.302-111.628 173.96-111.628 283.534zm489.166-73.166l-256.082-109.75 109.75 256.082 146.332-146.332zm-73.166-342.834c-109.574 0-209.234 42.386-283.532 111.628l411.532 176.372 176.372 411.532c69.242-74.298 111.628-173.958 111.628-283.532 0-229.75-186.25-416-416-416z"/><glyph unicode="" d="M0 768l320 128v-768l-320-128zm384 160l320-192v-736l-320 160zm384-192l256 192v-768l-256-192z"/><glyph unicode="" d="M672 768l-320 128-352-128v-768l352 128 320-128 352 128v768l-352-128zm-288 46.27l256-102.4v-630.138l-256 102.398v630.14zm-320-91.098l256 93.09v-631.8l-256-93.088v631.798zm896-550.344l-256-93.092v631.8l256 93.09v-631.798z"/><glyph unicode="" d="M640 896c247.424 0 448-200.576 448-448s-200.576-448-448-448v96c94.024 0 182.418 36.614 248.902 103.098s103.098 154.878 103.098 248.902c0 94.022-36.614 182.418-103.098 248.902s-154.878 103.098-248.902 103.098c-94.022 0-182.418-36.614-248.902-103.098-51.14-51.138-84.582-115.246-97.306-184.902h186.208l-224-256-224 256h164.57c31.06 217.102 217.738 384 443.43 384zm192-384v-128h-256v320h128v-192z" horiz-adv-x="1088"/><glyph unicode="" d="M658.744 210.744l-210.744 210.746v282.51h128v-229.49l173.256-173.254zm-146.744 749.256c-282.77 0-512-229.23-512-512s229.23-512 512-512 512 229.23 512 512-229.23 512-512 512zm0-896c-212.078 0-384 171.922-384 384s171.922 384 384 384 384-171.922 384-384-171.922-384-384-384z"/><glyph unicode="" d="M512 960c-282.77 0-512-229.23-512-512s229.23-512 512-512 512 229.23 512 512-229.23 512-512 512zm146.744-749.256l-210.744 210.746v282.51h128v-229.49l173.256-173.254-90.512-90.512z"/><glyph unicode="" d="M512 832c-247.424 0-448-200.576-448-448s200.576-448 448-448 448 200.576 448 448-200.576 448-448 448zm0-808c-198.824 0-360 161.178-360 360 0 198.824 161.176 360 360 360 198.822 0 360-161.176 360-360 0-198.822-161.178-360-360-360zm422.784 648.826c16.042 28.052 25.216 60.542 25.216 95.174 0 106.04-85.96 192-192 192-61.818 0-116.802-29.222-151.92-74.596 131.884-27.236 245.206-105.198 318.704-212.578zm-526.864 212.578c-35.116 45.374-90.102 74.596-151.92 74.596-106.04 0-192-85.96-192-192 0-34.632 9.174-67.122 25.216-95.174 73.5 107.38 186.822 185.342 318.704 212.578zm104.08-501.404v256h-64v-320h256v64z"/><glyph unicode="" d="M1025.5 160c0 288-256 224-256 448 0 18.56-1.788 34.42-5.048 47.928-16.83 113.018-92.156 203.72-189.772 231.36.866 3.948 1.32 8.032 1.32 12.21 0 33.278-28.8 60.502-64 60.502s-64-27.224-64-60.5c0-4.18.456-8.264 1.32-12.21-109.47-30.998-190.914-141.298-193.254-273.442-.04-1.92-.066-3.864-.066-5.846 0-224.002-256-160.002-256-448.002 0-76.226 170.59-139.996 398.97-156.08 21.524-40.404 64.056-67.92 113.03-67.92s91.508 27.516 113.03 67.92c228.38 16.084 398.97 79.854 398.97 156.08l-.028.682 1.528-.682zm-199.254-54.096c-54.23-14.47-118.158-24.876-186.768-30.648-5.704 65.418-60.582 116.744-127.478 116.744s-121.774-51.326-127.478-116.744c-68.608 5.772-132.538 16.178-186.768 30.648-74.63 19.914-110.31 42.19-123.368 54.096 13.058 11.906 48.738 34.182 123.368 54.096 86.772 23.152 198.372 35.904 314.246 35.904s227.474-12.752 314.246-35.904c74.63-19.914 110.31-42.19 123.368-54.096-13.058-11.906-48.738-34.182-123.368-54.096z"/><glyph unicode="" d="M512.002 766.788v65.212h128v64c0 35.346-28.654 64-64.002 64h-191.998c-35.346 0-64-28.654-64-64v-64h128v-65.212c-214.798-16.338-384-195.802-384-414.788 0-229.75 186.25-416 416-416s416 186.25 416 416c0 218.984-169.202 398.448-384 414.788zm194.274-641.062c-60.442-60.44-140.798-93.726-226.274-93.726s-165.834 33.286-226.274 93.726-93.726 140.8-93.726 226.274 33.286 165.834 93.726 226.274c58.04 58.038 134.448 91.018 216.114 93.548l-21.678-314.02c-1.86-26.29 12.464-37.802 31.836-37.802s33.698 11.512 31.836 37.802l-21.676 314.022c81.666-2.532 158.076-35.512 216.116-93.55 60.44-60.44 93.726-140.8 93.726-226.274s-33.286-165.834-93.726-226.274z"/><glyph unicode="" d="M320 576h128v-128h-128zm192 0h128v-128h-128zm192 0h128v-128h-128zm-576-384h128v-128h-128zm192 0h128v-128h-128zm192 0h128v-128h-128zm-192 192h128v-128h-128zm192 0h128v-128h-128zm192 0h128v-128h-128zm-576 0h128v-128h-128zm704 576v-64h-128v64h-448v-64h-128v64h-128v-1024h960v1024h-128zm64-960h-832v704h832v-704z"/><glyph unicode="" d="M256 896h512v-128h-512v128zm704-192h-896c-35.2 0-64-28.8-64-64v-320c0-35.2 28.794-64 64-64h192v-256h512v256h192c35.2 0 64 28.8 64 64v320c0 35.2-28.8 64-64 64zm-832-192c-35.346 0-64 28.654-64 64s28.654 64 64 64 64-28.654 64-64-28.652-64-64-64zm576-448h-384v320h384v-320z"/><glyph unicode="" d="M1088 832h-1024c-35.2 0-64-28.8-64-64v-640c0-35.2 28.8-64 64-64h1024c35.2 0 64 28.8 64 64v640c0 35.2-28.8 64-64 64zm-448-128h128v-128h-128v128zm192-192v-128h-128v128h128zm-384 192h128v-128h-128v128zm192-192v-128h-128v128h128zm-384 192h128v-128h-128v128zm192-192v-128h-128v128h128zm-320 192h64v-128h-64v128zm0-192h128v-128h-128v128zm64-320h-64v128h64v-128zm576 0h-512v128h512v-128zm256 0h-192v128h192v-128zm0 192h-128v128h128v-128zm0 192h-192v128h192v-128z" horiz-adv-x="1152"/><glyph unicode="" d="M0 896v-640h1024v640h-1024zm960-576h-896v512h896v-512zm-288-128h-320l-32-128-64-64h512l-64 64z"/><glyph unicode="" d="M896 256v512c0 35.2-28.8 64-64 64h-640c-35.2 0-64-28.8-64-64v-512h-128v-192h1024v192h-128zm-256-128h-256v64h256v-64zm192 128h-640v511.886l.114.114h639.77l.116-.116v-511.884z"/><glyph unicode="" d="M736 960h-448c-52.8 0-96-43.2-96-96v-832c0-52.8 43.2-96 96-96h448c52.8 0 96 43.2 96 96v832c0 52.8-43.2 96-96 96zm-352-48h256v-32h-256v32zm128-912c-35.346 0-64 28.654-64 64s28.654 64 64 64 64-28.654 64-64-28.654-64-64-64zm256 192h-512v640h512v-640z"/><glyph unicode="" d="M768 960h-576c-35.2 0-64-28.798-64-64v-896c0-35.2 28.798-64 64-64h576c35.2 0 64 28.8 64 64v896c0 35.202-28.8 64-64 64zm-288-977.782c-27.492 0-49.782 22.29-49.782 49.782s22.29 49.782 49.782 49.782 49.782-22.29 49.782-49.782-22.29-49.782-49.782-49.782zm288 145.782h-576v704h576v-704z"/><glyph unicode="" d="M800 960h-640c-52.8 0-96-43.2-96-96v-832c0-52.8 43.2-96 96-96h640c52.8 0 96 43.2 96 96v832c0 52.8-43.2 96-96 96zm-320-992c-17.672 0-32 14.326-32 32s14.328 32 32 32 32-14.326 32-32-14.328-32-32-32zm288 96h-576v768h576v-768z"/><glyph unicode="" d="M981.188 671.892c-88.808 12.768-183.382 22.016-282.076 27.22l164.888 164.888-64 64-224.558-224.556c-21.006.368-42.156.556-63.442.556l-256 256-64-64 194.196-194.196c-120.922-4.242-236.338-14.524-343.386-29.912-27.532-107.726-42.81-226.752-42.81-351.892s15.278-244.166 42.804-351.89c143.642-20.652 302.34-32.11 469.196-32.11s325.55 11.458 469.188 32.11c27.534 107.724 42.812 226.75 42.812 351.89s-15.278 244.166-42.812 351.892zm-117.296-586.486c-107.73-13.766-226.75-21.406-351.892-21.406s-244.166 7.64-351.892 21.406c-20.648 71.816-32.108 151.166-32.108 234.594 0 83.43 11.458 162.78 32.108 234.596 107.726 13.766 226.75 21.404 351.892 21.404 125.136 0 244.162-7.638 351.886-21.404 20.656-71.816 32.114-151.166 32.114-234.596 0-83.428-11.458-162.778-32.108-234.594z"/><glyph unicode="" d="M1016.988 307.99l-256 320c-6.074 7.592-15.266 12.01-24.988 12.01h-448c-9.72 0-18.916-4.418-24.988-12.01l-256-320c-4.538-5.674-7.012-12.724-7.012-19.99v-288c0-35.346 28.654-64 64-64h896c35.348 0 64 28.654 64 64v288c0 7.266-2.472 14.316-7.012 19.99zm-56.988-51.99h-224l-128-128h-192l-128 128h-224v20.776l239.38 299.224h417.24l239.38-299.224v-20.776zm-224 192h-448c-17.672 0-32 14.328-32 32s14.328 32 32 32h448c17.674 0 32-14.328 32-32s-14.326-32-32-32zm64-128h-576c-17.672 0-32 14.326-32 32s14.328 32 32 32h576c17.674 0 32-14.326 32-32s-14.326-32-32-32z"/><glyph unicode="" d="M1016.988 307.99l-256 320c-6.074 7.592-15.266 12.01-24.988 12.01h-448c-9.72 0-18.916-4.418-24.988-12.01l-256-320c-4.538-5.674-7.012-12.724-7.012-19.99v-288c0-35.346 28.654-64 64-64h896c35.348 0 64 28.654 64 64v288c0 7.266-2.472 14.316-7.012 19.99zm-56.988-51.99h-224l-128-128h-192l-128 128h-224v20.776l239.38 299.224h417.24l239.38-299.224v-20.776z"/><glyph unicode="" d="M832 896h-640l-192-192v-672c0-17.674 14.326-32 32-32h960c17.672 0 32 14.326 32 32v672l-192 192zm-320-768l-320 256h192v192h256v-192h192l-320-256zm-357.49 640l64 64h586.978l64-64h-714.978z"/><glyph unicode="" d="M832 896h-640l-192-192v-672c0-17.674 14.326-32 32-32h960c17.672 0 32 14.326 32 32v672l-192 192zm-192-576v-192h-256v192h-192l320 256 320-256h-192zm-485.49 448l64 64h586.976l64-64h-714.976z"/><glyph unicode="" d="M512 384l256 256h-192v256h-128v-256h-192zm232.726 104.728l-71.74-71.742 260.08-96.986-421.066-157.018-421.066 157.018 260.08 96.986-71.742 71.742-279.272-104.728v-256l512-192 512 192v256z"/><glyph unicode="" d="M448 384h128v256h192l-256 256-256-256h192zm192 144v-98.712l293.066-109.288-421.066-157.018-421.066 157.018 293.066 109.288v98.712l-384-144v-256l512-192 512 192v256z"/><glyph unicode="" d="M896 960h-896v-1024h1024v896l-128 128zm-384-128h128v-256h-128v256zm384-768h-768v768h64v-320h576v320h74.978l53.022-53.018v-714.982z"/><glyph unicode="" d="M192 64h640c106.038 0 192 85.96 192 192h-1024c0-106.04 85.962-192 192-192zm640 128h64v-64h-64v64zm128 640h-896l-64-512h1024z"/><glyph unicode="" d="M512 960c-282.77 0-512-71.634-512-160v-128c0-88.366 229.23-160 512-160s512 71.634 512 160v128c0 88.366-229.23 160-512 160zm0-544c-282.77 0-512 71.634-512 160v-192c0-88.366 229.23-160 512-160s512 71.634 512 160v192c0-88.366-229.23-160-512-160zm0-288c-282.77 0-512 71.634-512 160v-192c0-88.366 229.23-160 512-160s512 71.634 512 160v192c0-88.366-229.23-160-512-160z"/><glyph unicode="" d="M512 896c-141.384 0-269.376-57.32-362.032-149.978l-149.968 149.978v-384h384l-143.532 143.522c69.496 69.492 165.492 112.478 271.532 112.478 212.068 0 384-171.924 384-384 0-114.696-50.292-217.636-130.018-288l84.666-96c106.302 93.816 173.352 231.076 173.352 384 0 282.77-229.23 512-512 512z"/><glyph unicode="" d="M0 384c0-152.924 67.048-290.184 173.35-384l84.666 96c-79.726 70.364-130.016 173.304-130.016 288 0 212.076 171.93 384 384 384 106.042 0 202.038-42.986 271.53-112.478l-143.53-143.522h384v384l-149.97-149.978c-92.654 92.658-220.644 149.978-362.03 149.978-282.77 0-512-229.23-512-512z"/><glyph unicode="" d="M761.862-64c113.726 206.032 132.888 520.306-313.862 509.824v-253.824l-384 384 384 384v-248.372c534.962 13.942 594.57-472.214 313.862-775.628z"/><glyph unicode="" d="M576 711.628v248.372l384-384-384-384v253.824c-446.75 10.482-427.588-303.792-313.86-509.824-280.712 303.414-221.1 789.57 313.86 775.628z"/><glyph unicode="" d="M262.14 960c-113.728-206.032-132.89-520.304 313.86-509.824v253.824l384-384-384-384v248.372c-534.96-13.942-594.572 472.214-313.86 775.628z"/><glyph unicode="" d="M448 184.372v-248.372l-384 384 384 384v-253.824c446.75-10.48 427.588 303.792 313.862 509.824 280.71-303.414 221.1-789.57-313.862-775.628z"/><glyph unicode="" d="M512 896c282.77 0 512-186.25 512-416 0-229.752-229.23-416-512-416-27.156 0-53.81 1.734-79.824 5.044-109.978-109.978-241.25-129.7-368.176-132.596v26.916c68.536 33.578 128 94.74 128 164.636 0 9.754-.758 19.33-2.164 28.696-115.796 76.264-189.836 192.754-189.836 323.304 0 229.75 229.23 416 512 416z"/><glyph unicode="" d="M1088 58.834c0-45.5 26.028-84.908 64-104.184v-15.938c-10.626-1.454-21.472-2.224-32.5-2.224-68.008 0-129.348 28.528-172.722 74.264-26.222-6.982-54.002-10.752-82.778-10.752-159.058 0-288 114.616-288 256s128.942 256 288 256 288-114.616 288-256c0-55.348-19.764-106.592-53.356-148.466-6.824-14.824-10.644-31.312-10.644-48.7zm-576 901.166c278.458 0 504.992-180.614 511.836-405.52-49.182 21.92-103.586 33.52-159.836 33.52-95.56 0-185.816-33.446-254.138-94.178-70.846-62.972-109.862-147.434-109.862-237.822 0-44.672 9.544-87.888 27.736-127.788-5.228-.126-10.468-.212-15.736-.212-27.156 0-53.81 1.734-79.824 5.044-109.978-109.978-241.25-129.7-368.176-132.596v26.916c68.536 33.578 128 94.74 128 164.636 0 9.754-.758 19.33-2.164 28.696-115.796 76.264-189.836 192.754-189.836 323.304 0 229.75 229.23 416 512 416z" horiz-adv-x="1152"/><glyph unicode="" d="M480 960c265.096 0 480-173.914 480-388.448s-214.904-388.448-480-388.448c-25.458 0-50.446 1.62-74.834 4.71-103.106-102.694-222.172-121.108-341.166-123.814v25.134c64.252 31.354 116 88.466 116 153.734 0 9.106-.712 18.048-2.03 26.794-108.558 71.214-177.97 179.988-177.97 301.89 0 214.534 214.904 388.448 480 388.448zm516-870.686c0-55.942 36.314-104.898 92-131.772v-21.542c-103.126 2.318-197.786 18.102-287.142 106.126-21.14-2.65-42.794-4.04-64.858-4.04-95.47 0-183.408 25.758-253.614 69.04 144.674.506 281.26 46.854 384.834 130.672 52.208 42.252 93.394 91.826 122.414 147.348 30.766 58.866 46.366 121.582 46.366 186.406 0 10.448-.45 20.836-1.258 31.168 72.57-59.934 117.258-141.622 117.258-231.676 0-104.488-60.158-197.722-154.24-258.764-1.142-7.496-1.76-15.16-1.76-22.966z" horiz-adv-x="1152"/><glyph unicode="" d="M512 768c-54.932 0-107.988-8.662-157.694-25.742-46.712-16.054-88.306-38.744-123.628-67.444-66.214-53.798-102.678-122.984-102.678-194.814 0-40.298 11.188-79.378 33.252-116.152 22.752-37.92 56.982-72.586 98.988-100.252 30.356-19.992 50.78-51.948 56.176-87.894 1.8-11.984 2.928-24.088 3.37-36.124 7.47 6.194 14.75 12.846 21.88 19.976 24.154 24.152 56.78 37.49 90.502 37.49 5.368 0 10.762-.336 16.156-1.024 20.974-2.666 42.398-4.02 63.676-4.02 54.934 0 107.988 8.66 157.694 25.742 46.712 16.054 88.306 38.744 123.628 67.444 66.214 53.796 102.678 122.984 102.678 194.814s-36.464 141.016-102.678 194.814c-35.322 28.698-76.916 51.39-123.628 67.444-49.706 17.08-102.76 25.742-157.694 25.742zm0 128c282.77 0 512-186.25 512-416 0-229.752-229.23-416-512-416-27.156 0-53.81 1.734-79.824 5.044-109.978-109.978-241.25-129.7-368.176-132.596v26.916c68.536 33.578 128 94.74 128 164.636 0 9.754-.758 19.33-2.164 28.696-115.796 76.264-189.836 192.754-189.836 323.304 0 229.75 229.23 416 512 416z"/><glyph unicode="" d="M1088 58.834c0-45.5 26.028-84.908 64-104.184v-15.938c-10.626-1.454-21.472-2.224-32.5-2.224-68.008 0-129.348 28.528-172.722 74.264-26.222-6.982-54.002-10.752-82.778-10.752-159.058 0-288 114.616-288 256s128.942 256 288 256 288-114.616 288-256c0-55.348-19.764-106.592-53.356-148.466-6.824-14.824-10.644-31.312-10.644-48.7zm-857.322 679.98c-66.214-53.798-102.678-122.984-102.678-194.814 0-40.298 11.188-79.378 33.252-116.15 22.752-37.92 56.982-72.586 98.988-100.252 30.356-19.992 50.78-51.948 56.176-87.894 1.8-11.984 2.928-24.088 3.37-36.124 7.47 6.194 14.75 12.846 21.88 19.976 24.154 24.152 56.78 37.49 90.502 37.49 5.368 0 10.762-.336 16.156-1.024 20.948-2.662 42.344-4.016 63.594-4.02v-128c-27.128.002-53.754 1.738-79.742 5.042-109.978-109.978-241.25-129.7-368.176-132.596v26.916c68.536 33.578 128 94.74 128 164.636 0 9.754-.758 19.33-2.164 28.696-115.796 76.264-189.836 192.754-189.836 323.304 0 229.75 229.23 416 512 416 278.458 0 504.992-180.614 511.836-405.52-41.096 18.316-85.84 29.422-132.262 32.578-11.53 56.068-45.402 108.816-98.252 151.756-35.322 28.698-76.916 51.39-123.628 67.444-49.706 17.08-102.76 25.742-157.694 25.742-54.932 0-107.988-8.662-157.694-25.742-46.712-16.054-88.306-38.744-123.628-67.444z" horiz-adv-x="1152"/><glyph unicode="" d="M480 832c-50.666 0-99.582-7.95-145.386-23.628-42.924-14.694-81.114-35.436-113.502-61.646-60.044-48.59-93.112-110.802-93.112-175.174 0-35.99 10.066-70.948 29.92-103.898 20.686-34.34 51.898-65.794 90.26-90.958 30.44-19.968 50.936-51.952 56.362-87.95.902-5.99 1.63-12.006 2.18-18.032 2.722 2.52 5.424 5.114 8.114 7.794 24.138 24.04 56.688 37.312 90.322 37.312 5.348 0 10.718-.336 16.094-1.018 19.36-2.452 39.124-3.696 58.748-3.696 50.666 0 99.58 7.948 145.384 23.628 42.926 14.692 81.116 35.434 113.504 61.644 60.046 48.59 93.112 110.802 93.112 175.174s-33.066 126.582-93.112 175.174c-32.388 26.212-70.578 46.952-113.504 61.646-45.804 15.678-94.718 23.628-145.384 23.628zm0 128c265.096 0 480-173.914 480-388.448s-214.904-388.448-480-388.448c-25.458 0-50.446 1.62-74.834 4.71-103.106-102.694-222.172-121.108-341.166-123.814v25.134c64.252 31.354 116 88.466 116 153.734 0 9.106-.712 18.048-2.03 26.794-108.558 71.214-177.97 179.988-177.97 301.89 0 214.534 214.904 388.448 480 388.448zm516-870.686c0-55.942 36.314-104.898 92-131.772v-21.542c-103.126 2.318-197.786 18.102-287.142 106.126-21.14-2.65-42.794-4.04-64.858-4.04-95.47 0-183.408 25.758-253.614 69.04 144.674.506 281.26 46.854 384.834 130.672 52.208 42.252 93.394 91.826 122.414 147.348 30.766 58.866 46.366 121.582 46.366 186.406 0 10.448-.45 20.836-1.258 31.168 72.57-59.934 117.258-141.622 117.258-231.676 0-104.488-60.158-197.722-154.24-258.764-1.142-7.496-1.76-15.16-1.76-22.966z" horiz-adv-x="1152"/><glyph unicode="" d="M576 253.388v52.78c70.498 39.728 128 138.772 128 237.832 0 159.058 0 288-192 288s-192-128.942-192-288c0-99.06 57.502-198.104 128-237.832v-52.78c-217.102-17.748-384-124.42-384-253.388h896c0 128.968-166.898 235.64-384 253.388z"/><glyph unicode="" d="M768 189.388v52.78c70.498 39.728 128 138.772 128 237.832 0 159.058 0 288-192 288s-192-128.942-192-288c0-99.06 57.502-198.104 128-237.832v-52.78c-217.102-17.748-384-124.42-384-253.388h896c0 128.968-166.898 235.64-384 253.388zm-440.804-24.716c55.31 36.15 124.08 63.636 199.788 80.414-15.054 17.784-28.708 37.622-40.492 59.02-30.414 55.234-46.492 116.058-46.492 175.894 0 86.042 0 167.31 30.6 233.762 29.706 64.504 83.128 104.496 159.222 119.488-16.914 76.48-61.94 126.75-181.822 126.75-192 0-192-128.942-192-288 0-99.06 57.502-198.104 128-237.832v-52.78c-217.102-17.748-384-124.42-384-253.388h279.006c14.518 12.91 30.596 25.172 48.19 36.672z" horiz-adv-x="1152"/><glyph unicode="" d="M384 224c0 151.234 95.874 280.486 230.032 330.2 16.28 36.538 25.968 77.164 25.968 117.8 0 159.058 0 288-192 288s-192-128.942-192-288c0-99.06 57.502-198.104 128-237.832v-52.78c-217.102-17.748-384-124.42-384-253.388h397.306c-8.664 30.53-13.306 62.732-13.306 96zm352 288c-159.058 0-288-128.942-288-288s128.942-288 288-288c159.056 0 288 128.942 288 288s-128.942 288-288 288zm160-320h-128v-128h-64v128h-128v64h128v128h64v-128h128v-64z"/><glyph unicode="" d="M384 224c0 151.234 95.874 280.486 230.032 330.2 16.28 36.538 25.968 77.164 25.968 117.8 0 159.058 0 288-192 288s-192-128.942-192-288c0-99.06 57.502-198.104 128-237.832v-52.78c-217.102-17.748-384-124.42-384-253.388h397.306c-8.664 30.53-13.306 62.732-13.306 96zm352 288c-159.058 0-288-128.942-288-288s128.942-288 288-288c159.056 0 288 128.942 288 288s-128.942 288-288 288zm160-320h-320v64h320v-64z"/><glyph unicode="" d="M960 352l-288-288-96 96-64-64 160-160 352 352zm-512-160h320v115.128c-67.22 39.2-156.308 66.11-256 74.26v52.78c70.498 39.728 128 138.772 128 237.832 0 159.058 0 288-192 288s-192-128.942-192-288c0-99.06 57.502-198.104 128-237.832v-52.78c-217.102-17.748-384-124.42-384-253.388h448v64z"/><glyph unicode="" d="M320 768c0 106.039 85.961 192 192 192s192-85.961 192-192-85.961-192-192-192-192 85.961-192 192zm448.078-256h-35.424l-199.104-404.244 74.45 372.244-96 96-96-96 74.45-372.244-199.102 404.244h-35.424c-127.924 0-127.924-85.986-127.924-192v-320h768v320c0 106.014 0 192-127.922 192z"/><glyph unicode="" d="M225 512c123.712 0 224-100.29 224-224 0-123.712-100.288-224-224-224s-224 100.288-224 224l-1 32c0 247.424 200.576 448 448 448v-128c-85.474 0-165.834-33.286-226.274-93.726-11.634-11.636-22.252-24.016-31.83-37.02 11.438 1.8 23.16 2.746 35.104 2.746zm576 0c123.71 0 224-100.29 224-224 0-123.712-100.29-224-224-224s-224 100.288-224 224l-1 32c0 247.424 200.576 448 448 448v-128c-85.474 0-165.834-33.286-226.274-93.726-11.636-11.636-22.254-24.016-31.832-37.02 11.44 1.8 23.16 2.746 35.106 2.746z"/><glyph unicode="" d="M800 320c-123.712 0-224 100.29-224 224 0 123.712 100.288 224 224 224s224-100.288 224-224l1-32c0-247.424-200.576-448-448-448v128c85.474 0 165.834 33.286 226.274 93.726 11.634 11.636 22.252 24.016 31.83 37.02-11.438-1.8-23.16-2.746-35.104-2.746zm-576 0c-123.71 0-224 100.29-224 224 0 123.712 100.29 224 224 224s224-100.288 224-224l1-32c0-247.424-200.576-448-448-448v128c85.474 0 165.834 33.286 226.274 93.726 11.636 11.636 22.254 24.016 31.832 37.02-11.44-1.8-23.16-2.746-35.106-2.746z"/><glyph unicode="" d="M728.992 448c137.754 87.334 231.008 255.208 231.008 448 0 21.676-1.192 43.034-3.478 64h-889.042c-2.29-20.968-3.48-42.326-3.48-64 0-192.792 93.254-360.666 231.006-448-137.752-87.334-231.006-255.208-231.006-448 0-21.676 1.19-43.034 3.478-64h889.042c2.288 20.966 3.478 42.324 3.478 64 .002 192.792-93.252 360.666-231.006 448zm-568.992-448c0 186.912 80.162 345.414 224 397.708v100.586c-143.838 52.29-224 210.792-224 397.706h704c0-186.914-80.162-345.416-224-397.706v-100.586c143.838-52.294 224-210.796 224-397.708h-704zm459.626 290.406c-71.654 40.644-75.608 93.368-75.626 125.366v64.228c0 31.994 3.804 84.914 75.744 125.664 38.504 22.364 71.808 56.348 97.048 98.336h-409.582c25.266-42.032 58.612-76.042 97.166-98.406 71.654-40.644 75.606-93.366 75.626-125.366v-64.228c0-31.992-3.804-84.914-75.744-125.664-72.622-42.18-126.738-125.684-143.09-226.336h501.67c-16.364 100.708-70.53 184.248-143.212 226.406z"/><glyph unicode="" d="M384 832c0 70.692 57.308 128 128 128s128-57.308 128-128c0-70.692-57.308-128-128-128s-128 57.308-128 128zm271.53-112.47c0 70.692 57.308 128 128 128s128-57.308 128-128c0-70.692-57.308-128-128-128s-128 57.308-128 128zm176.47-271.53c0 35.346 28.654 64 64 64s64-28.654 64-64c0-35.346-28.654-64-64-64s-64 28.654-64 64zm-112.47-271.53c0 35.346 28.654 64 64 64s64-28.654 64-64c0-35.346-28.654-64-64-64s-64 28.654-64 64zm-271.528-112.47c0 35.346 28.654 64 64 64s64-28.654 64-64c0-35.346-28.654-64-64-64s-64 28.654-64 64zm-271.53 112.47c0 35.346 28.654 64 64 64s64-28.654 64-64c0-35.346-28.654-64-64-64s-64 28.654-64 64zm-32 543.06c0 53.019 42.981 96 96 96s96-42.981 96-96-42.981-96-96-96-96 42.981-96 96zm-88.472-271.53c0 39.765 32.235 72 72 72s72-32.235 72-72-32.235-72-72-72-72 32.235-72 72z"/><glyph unicode="" d="M1024 448c-1.278 66.862-15.784 133.516-42.576 194.462-26.704 61-65.462 116.258-113.042 161.92-47.552 45.696-103.944 81.82-164.984 105.652-61.004 23.924-126.596 35.352-191.398 33.966-64.81-1.282-129.332-15.374-188.334-41.356-59.048-25.896-112.542-63.47-156.734-109.576-44.224-46.082-79.16-100.708-102.186-159.798-23.114-59.062-34.128-122.52-32.746-185.27 1.286-62.76 14.964-125.148 40.134-182.206 25.088-57.1 61.476-108.828 106.11-151.548 44.61-42.754 97.472-76.504 154.614-98.72 57.118-22.304 118.446-32.902 179.142-31.526 60.708 1.29 120.962 14.554 176.076 38.914 55.15 24.282 105.116 59.48 146.366 102.644 41.282 43.14 73.844 94.236 95.254 149.43 13.034 33.458 21.88 68.4 26.542 103.798 1.246-.072 2.498-.12 3.762-.12 35.346 0 64 28.652 64 64 0 1.796-.094 3.572-.238 5.332h.238zm-101.694-169.948c-23.472-53.202-57.484-101.4-99.178-141.18-41.67-39.81-91-71.186-144.244-91.79-53.228-20.678-110.29-30.452-166.884-29.082-56.604 1.298-112.596 13.736-163.82 36.474-51.25 22.666-97.684 55.49-135.994 95.712-38.338 40.198-68.528 87.764-88.322 139.058-19.87 51.284-29.228 106.214-27.864 160.756 1.302 54.552 13.328 108.412 35.254 157.69 21.858 49.3 53.498 93.97 92.246 130.81 38.73 36.868 84.53 65.87 133.874 84.856 49.338 19.06 102.136 28.006 154.626 26.644 52.5-1.306 104.228-12.918 151.562-34.034 47.352-21.05 90.256-51.502 125.624-88.782 35.396-37.258 63.21-81.294 81.39-128.688 18.248-47.392 26.782-98.058 25.424-148.496h.238c-.144-1.76-.238-3.536-.238-5.332 0-33.012 24.992-60.174 57.086-63.624-6.224-34.822-16.53-68.818-30.78-100.992z"/><glyph unicode="" d="M512 656.904c-32.964 0-59.686 26.724-59.686 59.686v179.06c0 32.964 26.722 59.686 59.686 59.686 32.962 0 59.688-26.722 59.688-59.686v-179.06c0-32.964-26.726-59.686-59.688-59.686zm0-693.86c-20.602 0-37.304 16.702-37.304 37.304v179.06c0 20.602 16.702 37.304 37.304 37.304 20.604 0 37.304-16.704 37.304-37.304v-179.06c0-20.602-16.7-37.304-37.304-37.304zm-134.244 661.596c-19.34 0-38.146 10.034-48.512 27.988l-89.53 155.07c-15.452 26.764-6.282 60.986 20.482 76.438 26.762 15.45 60.986 6.284 76.438-20.482l89.53-155.072c15.452-26.764 6.282-60.986-20.482-76.438-8.81-5.084-18.432-7.504-27.926-7.504zm358.1-597.896c-11.602 0-22.886 6.022-29.108 16.792l-89.53 155.07c-9.27 16.056-3.77 36.592 12.29 45.864 16.056 9.264 36.59 3.77 45.864-12.292l89.532-155.068c9.27-16.058 3.768-36.592-12.292-45.864-5.286-3.048-11.06-4.502-16.756-4.502zm-456.512 503.316c-8.86 0-17.838 2.256-26.064 7.006l-155.072 89.53c-24.978 14.422-33.538 46.362-19.116 71.342 14.42 24.978 46.364 33.538 71.342 19.116l155.07-89.53c24.98-14.422 33.538-46.362 19.116-71.34-9.668-16.756-27.226-26.124-45.276-26.124zm620.304-335.734c-5.064 0-10.196 1.29-14.894 4.004l-155.068 89.53c-14.274 8.24-19.164 26.494-10.924 40.768 8.242 14.276 26.496 19.166 40.766 10.924l155.07-89.532c14.274-8.24 19.164-26.492 10.924-40.766-5.53-9.574-15.562-14.928-25.874-14.928zm-656.238 205.178h-179.06c-26.784 0-48.496 21.712-48.496 48.496s21.712 48.496 48.496 48.496h179.06c26.784 0 48.496-21.712 48.496-48.496s-21.712-48.496-48.496-48.496zm716.24 18.652h-179.06c-16.482.002-29.844 13.364-29.844 29.844s13.364 29.844 29.844 29.844h179.06c16.482 0 29.844-13.362 29.844-29.844 0-16.48-13.364-29.844-29.844-29.844zm-835.284-238.754c-15.472 0-30.518 8.028-38.81 22.39-12.362 21.41-5.026 48.79 16.384 61.148l155.072 89.532c21.41 12.368 48.79 5.028 61.15-16.384 12.362-21.412 5.026-48.79-16.384-61.15l-155.072-89.53c-7.05-4.07-14.748-6.006-22.34-6.006zm620.266 373.046c-10.314 0-20.346 5.352-25.874 14.926-8.24 14.274-3.35 32.526 10.924 40.768l155.07 89.528c14.272 8.236 32.526 3.352 40.768-10.922 8.24-14.274 3.35-32.526-10.924-40.768l-155.07-89.528c-4.7-2.714-9.83-4.004-14.894-4.004zm-456.496-533.164c-6.962 0-14.016 1.774-20.48 5.504-19.626 11.332-26.35 36.428-15.02 56.054l89.53 155.07c11.33 19.628 36.426 26.352 56.054 15.022 19.626-11.332 26.35-36.43 15.02-56.054l-89.53-155.072c-7.598-13.166-21.392-20.524-35.574-20.524zm358.13 631.474c-5.062 0-10.196 1.29-14.894 4.002-14.274 8.242-19.164 26.494-10.924 40.766l89.534 155.07c8.24 14.274 26.492 19.166 40.766 10.922 14.274-8.242 19.164-26.494 10.924-40.766l-89.532-155.07c-5.53-9.57-15.56-14.924-25.874-14.924z"/><glyph unicode="" d="M192 448c0 12.18.704 24.196 2.03 36.022l-184.98 60.104c-5.916-31.14-9.05-63.264-9.05-96.126 0-147.23 62.166-279.922 161.654-373.324l114.284 157.296c-52.124 56.926-83.938 132.758-83.938 216.028zm640 0c0-83.268-31.812-159.102-83.938-216.028l114.284-157.296c99.488 93.402 161.654 226.094 161.654 373.324 0 32.862-3.132 64.986-9.048 96.126l-184.98-60.104c1.324-11.828 2.028-23.842 2.028-36.022zm-256 313.592c91.934-18.662 169.544-76.742 214.45-155.826l184.978 60.102c-73.196 155.42-222.24 268.06-399.428 290.156v-194.432zm-342.45-155.824c44.906 79.084 122.516 137.164 214.45 155.826v194.43c-177.188-22.096-326.23-134.736-399.426-290.154l184.976-60.102zm411.006-449.096c-40.39-18.408-85.272-28.672-132.556-28.672s-92.166 10.264-132.554 28.67l-114.292-157.31c73.206-40.366 157.336-63.36 246.846-63.36s173.64 22.994 246.848 63.36l-114.292 157.312z"/><glyph unicode="" d="M512 960c-282.77 0-512-229.23-512-512s229.23-512 512-512 512 229.23 512 512-229.23 512-512 512zm0-256c141.384 0 256-114.616 256-256s-114.616-256-256-256-256 114.616-256 256 114.616 256 256 256zm305.47-561.47c-81.594-81.594-190.08-126.53-305.47-126.53-115.392 0-223.876 44.936-305.47 126.53s-126.53 190.078-126.53 305.47c0 115.39 44.936 223.876 126.53 305.47l67.882-67.882c-131.006-131.006-131.006-344.17 0-475.176 63.462-63.462 147.838-98.412 237.588-98.412 89.748 0 174.124 34.95 237.588 98.412 131.006 131.006 131.006 344.168 0 475.176l67.882 67.882c81.594-81.594 126.53-190.08 126.53-305.47 0-115.392-44.936-223.876-126.53-305.47z"/><glyph unicode="" d="M384 832c0 70.692 57.308 128 128 128s128-57.308 128-128c0-70.692-57.308-128-128-128s-128 57.308-128 128zm406.994-384c0 57.993 47.013 105.006 105.006 105.006s105.006-47.013 105.006-105.006-47.013-105.006-105.006-105.006-105.006 47.013-105.006 105.006zm-102.57-271.53c0 52.526 42.58 95.106 95.106 95.106s95.106-42.58 95.106-95.106c0-52.526-42.58-95.106-95.106-95.106s-95.106 42.58-95.106 95.106zm-262.562-112.47c0 47.573 38.565 86.138 86.138 86.138s86.138-38.565 86.138-86.138c0-47.573-38.565-86.138-86.138-86.138s-86.138 38.565-86.138 86.138zm-263.408 112.47c0 43.088 34.93 78.018 78.018 78.018s78.018-34.93 78.018-78.018-34.93-78.018-78.018-78.018-78.018 34.93-78.018 78.018zm-105.116 271.53c0 39.026 31.636 70.662 70.662 70.662s70.662-31.636 70.662-70.662c0-39.026-31.636-70.662-70.662-70.662s-70.662 31.636-70.662 70.662zm119.134 271.528c0 35.346 28.654 64 64 64s64-28.654 64-64c0-35.346-28.654-64-64-64s-64 28.654-64 64zm722.992 0c0-64.024-51.906-115.934-115.936-115.934-64.024 0-115.936 51.91-115.936 115.934 0 64.032 51.912 115.934 115.936 115.934 64.03 0 115.936-51.902 115.936-115.934z"/><glyph unicode="" d="M416 32c0 53.019 42.981 96 96 96s96-42.981 96-96-42.981-96-96-96-96 42.981-96 96zm-416 416c0 53.019 42.981 96 96 96s96-42.981 96-96-42.981-96-96-96-96 42.981-96 96zm832 0c0 53.019 42.981 96 96 96s96-42.981 96-96-42.981-96-96-96-96 42.981-96 96zm-710.156 294.156c0 53.019 42.981 96 96 96s96-42.981 96-96-42.981-96-96-96-96 42.981-96 96zm588.312-588.312c0 53.019 42.981 96 96 96s96-42.981 96-96-42.981-96-96-96-96 42.981-96 96zm-588.312 0c0 53.019 42.981 96 96 96s96-42.981 96-96-42.981-96-96-96-96 42.981-96 96zm588.312 588.312c0 53.019 42.981 96 96 96s96-42.981 96-96-42.981-96-96-96-96 42.981-96 96z"/><glyph unicode="" d="M512-64c-136.76 0-265.334 53.258-362.04 149.96-96.702 96.706-149.96 225.28-149.96 362.04 0 96.838 27.182 191.134 78.606 272.692 50 79.296 120.664 143.372 204.356 185.3l43-85.832c-68.038-34.084-125.492-86.186-166.15-150.67-41.746-66.208-63.812-142.798-63.812-221.49 0-229.382 186.618-416 416-416s416 186.618 416 416c0 78.692-22.066 155.282-63.81 221.49-40.66 64.484-98.114 116.584-166.15 150.67l43 85.832c83.692-41.928 154.358-106.004 204.356-185.3 51.422-81.558 78.604-175.854 78.604-272.692 0-136.76-53.258-265.334-149.96-362.04-96.706-96.702-225.28-149.96-362.04-149.96z"/><glyph unicode="" d="M512 960c-278.748 0-505.458-222.762-511.848-499.974 5.92 241.864 189.832 435.974 415.848 435.974 229.75 0 416-200.576 416-448 0-53.02 42.98-96 96-96s96 42.98 96 96c0 282.77-229.23 512-512 512zm0-1024c278.748 0 505.458 222.762 511.848 499.974-5.92-241.864-189.832-435.974-415.848-435.974-229.75 0-416 200.576-416 448 0 53.02-42.98 96-96 96s-96-42.98-96-96c0-282.77 229.23-512 512-512z"/><glyph unicode="" d="M.042 446.382l-.022-.004.028-.222c.11-3.878.55-7.676 1.322-11.352l.674-5.774c.222-1.886.46-3.914.718-6.078l1.19-8.176c.856-5.746 1.8-12.124 2.908-18.958 1.348-6.446 2.804-13.414 4.364-20.864.71-3.718 1.776-7.504 2.786-11.406l3.16-12.004c.566-2.042 1.04-4.132 1.708-6.208.656-2.074 1.32-4.176 1.988-6.3 1.348-4.234 2.726-8.566 4.136-12.988l1.064-3.324 1.226-3.316c.826-2.218 1.658-4.458 2.502-6.714 1.696-4.496 3.422-9.078 5.18-13.742l6.004-13.934 3.078-7.098c1.048-2.376 2.27-4.704 3.408-7.074 2.322-4.714 4.678-9.496 7.062-14.332 2.47-4.786 5.208-9.512 7.846-14.328 1.336-2.398 2.68-4.808 4.028-7.23 1.368-2.41 2.902-4.75 4.356-7.14l8.934-14.348c12.64-18.894 26.676-37.566 42.21-55.278 15.712-17.578 32.726-34.25 50.692-49.602 18.18-15.136 37.264-28.902 56.726-41.114 19.604-12.036 39.644-22.312 59.376-31.144 5.004-2.04 9.964-4.062 14.878-6.066 2.462-.972 4.868-2.032 7.336-2.918l7.376-2.594c4.898-1.684 9.678-3.468 14.484-4.992 4.832-1.43 9.604-2.844 14.312-4.242 2.356-.672 4.66-1.426 7.004-2.012 2.346-.574 4.676-1.14 6.986-1.704 4.606-1.118 9.142-2.214 13.604-3.296 4.5-.868 8.926-1.722 13.27-2.558l6.434-1.222c1.062-.2 2.118-.398 3.166-.598 1.06-.148 2.118-.292 3.166-.442 4.192-.582 8.292-1.152 12.3-1.71 1.998-.274 3.972-.546 5.922-.816 1.946-.286 3.904-.378 5.814-.57 3.822-.336 7.544-.664 11.164-.98 3.616-.304 7.104-.688 10.526-.738l.682-.026c.614-34.812 29.008-62.846 63.968-62.846.542 0 1.08.028 1.62.042v-.022l.224.028c3.878.11 7.674.55 11.35 1.322l5.776.672 6.076.718c2.566.376 5.292.772 8.176 1.192 5.746.856 12.124 1.8 18.958 2.908l20.864 4.362c3.718.712 7.504 1.778 11.406 2.786 3.892 1.026 7.894 2.08 12.004 3.162 2.044.566 4.132 1.04 6.208 1.708 2.074.656 4.174 1.318 6.3 1.988 4.232 1.348 8.564 2.726 12.988 4.134l3.324 1.066c1.1.406 2.206.814 3.316 1.226 2.216.824 4.456 1.658 6.714 2.5 4.496 1.698 9.078 3.424 13.74 5.182l13.936 6.004 7.098 3.078c2.376 1.048 4.702 2.27 7.074 3.408 4.714 2.322 9.494 4.678 14.33 7.062 4.786 2.47 9.512 5.208 14.328 7.846l7.23 4.028c2.41 1.366 4.75 2.9 7.14 4.354 4.738 2.952 9.524 5.93 14.35 8.936 18.89 12.64 37.564 26.674 55.278 42.21 17.574 15.712 34.248 32.726 49.602 50.69 15.136 18.182 28.902 37.264 41.112 56.728 12.036 19.602 22.314 39.644 31.142 59.376l6.068 14.878c.974 2.462 2.032 4.868 2.918 7.334l2.592 7.376c1.686 4.898 3.468 9.678 4.994 14.484 1.432 4.832 2.846 9.604 4.24 14.31.674 2.358 1.43 4.66 2.016 7.004.57 2.348 1.138 4.676 1.702 6.988 1.118 4.606 2.216 9.14 3.296 13.602l2.558 13.272c.41 2.164.818 4.308 1.222 6.434l.596 3.164.444 3.168c.582 4.19 1.152 8.292 1.708 12.3.278 1.996.55 3.97.82 5.922.284 1.946.376 3.902.568 5.812.336 3.822.664 7.546.98 11.164.304 3.616.686 7.106.738 10.528l.058 1.574c35.224.146 63.732 28.738 63.732 63.992 0 .542-.028 1.08-.042 1.62h.022l-.028.224c-.11 3.878-.55 7.674-1.322 11.35l-.674 5.776c-.222 1.886-.46 3.914-.718 6.076l-1.19 8.176c-.856 5.746-1.8 12.124-2.908 18.958-1.348 6.444-2.804 13.414-4.364 20.862-.71 3.72-1.776 7.506-2.786 11.408-1.024 3.892-2.078 7.894-3.16 12.002-.566 2.044-1.04 4.134-1.708 6.208-.656 2.076-1.32 4.174-1.988 6.3-1.348 4.234-2.726 8.566-4.136 12.99l-1.064 3.324-1.226 3.316c-.826 2.216-1.658 4.454-2.502 6.714-1.696 4.498-3.422 9.08-5.18 13.74-1.968 4.57-3.97 9.216-6.004 13.936-1.02 2.348-2.044 4.714-3.078 7.098-1.048 2.376-2.27 4.702-3.408 7.076-2.322 4.714-4.678 9.494-7.062 14.33-2.47 4.786-5.208 9.512-7.846 14.328-1.336 2.398-2.68 4.808-4.028 7.23-1.368 2.41-2.902 4.75-4.356 7.14l-8.934 14.35c-12.64 18.892-26.676 37.564-42.21 55.278-15.712 17.576-32.726 34.25-50.692 49.602-18.18 15.136-37.264 28.902-56.726 41.112-19.604 12.036-39.644 22.314-59.376 31.142-5.004 2.04-9.964 4.062-14.878 6.068-2.462.974-4.868 2.032-7.336 2.918-2.47.87-4.93 1.734-7.376 2.592-4.898 1.684-9.678 3.468-14.484 4.994-4.832 1.432-9.604 2.846-14.312 4.242-2.356.672-4.66 1.428-7.004 2.014l-6.986 1.702c-4.606 1.118-9.142 2.216-13.604 3.298l-13.27 2.558c-2.166.412-4.31.82-6.434 1.222l-3.166.596-3.166.442c-4.192.584-8.292 1.154-12.3 1.71l-5.922.82c-1.946.284-3.904.376-5.814.57-3.822.336-7.544.664-11.164.98-3.616.304-7.104.686-10.526.738l-2.512.092c-.65 34.78-29.028 62.778-63.966 62.778-.542 0-1.08-.028-1.62-.042l-.002.022-.222-.028c-3.878-.11-7.676-.55-11.352-1.322l-5.776-.672-6.076-.718c-2.566-.376-5.292-.772-8.176-1.192-5.746-.856-12.124-1.8-18.958-2.908l-20.864-4.362c-3.718-.712-7.504-1.778-11.406-2.786-3.892-1.026-7.894-2.08-12.004-3.162-2.044-.566-4.132-1.04-6.208-1.708-2.074-.656-4.174-1.318-6.3-1.988-4.232-1.348-8.564-2.726-12.988-4.134l-3.324-1.066c-1.1-.406-2.206-.814-3.316-1.226-2.216-.824-4.456-1.658-6.714-2.5-4.496-1.698-9.078-3.424-13.74-5.182l-13.936-6.004-7.098-3.078c-2.376-1.048-4.702-2.27-7.074-3.408-4.714-2.322-9.494-4.678-14.33-7.062-4.786-2.47-9.512-5.208-14.328-7.846l-7.23-4.028c-2.41-1.366-4.75-2.9-7.14-4.354-4.738-2.952-9.524-5.93-14.35-8.936-18.89-12.64-37.564-26.674-55.278-42.21-17.574-15.712-34.248-32.726-49.602-50.69-15.136-18.182-28.902-37.264-41.112-56.728-12.036-19.602-22.314-39.644-31.142-59.376l-6.068-14.878c-.974-2.462-2.032-4.868-2.918-7.334l-2.592-7.376c-1.686-4.898-3.468-9.678-4.994-14.484-1.432-4.832-2.846-9.604-4.24-14.31-.674-2.358-1.43-4.66-2.016-7.004-.57-2.348-1.138-4.676-1.702-6.988-1.118-4.606-2.216-9.14-3.296-13.602l-2.558-13.272c-.41-2.164-.818-4.308-1.222-6.434l-.596-3.164-.444-3.168c-.582-4.19-1.152-8.292-1.708-12.3-.278-1.996-.55-3.97-.82-5.922-.284-1.946-.376-3.902-.568-5.812-.336-3.822-.664-7.546-.98-11.164-.304-3.616-.686-7.106-.738-10.528l-.058-1.62c-34.376-1.112-61.902-29.304-61.902-63.946 0-.542.028-1.078.042-1.618zm73.476 64.912l.128.58c.644 3.248 1.632 6.542 2.556 9.942l2.88 10.454c.516 1.78.934 3.602 1.546 5.406.596 1.802 1.202 3.628 1.81 5.476l3.736 11.294c.316.958.634 1.924.956 2.892l1.114 2.876 2.26 5.83 4.646 11.93 5.392 12.08c.908 2.038 1.824 4.09 2.746 6.156.932 2.06 2.036 4.072 3.052 6.126l6.294 12.412c2.202 4.142 4.654 8.224 6.998 12.392l3.57 6.256c1.21 2.086 2.586 4.102 3.876 6.166l7.918 12.402c11.234 16.298 23.632 32.398 37.33 47.638 13.874 15.104 28.842 29.404 44.598 42.548 15.974 12.928 32.686 24.65 49.676 35.022 17.13 10.194 34.6 18.838 51.734 26.258 4.35 1.7 8.662 3.382 12.934 5.05 2.136.812 4.216 1.71 6.36 2.444 2.146.714 4.28 1.428 6.404 2.136 4.25 1.386 8.382 2.888 12.548 4.142 4.184 1.174 8.314 2.332 12.392 3.474 2.038.55 4.026 1.19 6.054 1.662 2.03.458 4.044.914 6.044 1.368 3.978.91 7.896 1.806 11.748 2.688l11.462 2.022 5.546.98 2.728.484 2.734.332c3.612.448 7.148.882 10.604 1.31l5.102.644c1.674.226 3.364.266 5.01.408 3.292.238 6.498.472 9.616.7 3.11.218 6.11.524 9.058.508 5.848.132 11.32.256 16.38.372 4.664-.168 8.948-.324 12.818-.462l5.432-.156 5.958-.378 5.82-.38c3.256-.51 6.592-.782 9.99-.782.466 0 .93.026 1.396.036l.224-.014v.02c31.14.778 56.75 23.784 61.556 53.754l1.612-.356c3.246-.644 6.542-1.632 9.942-2.556 3.386-.934 6.876-1.894 10.454-2.88 1.778-.516 3.602-.934 5.404-1.546l5.478-1.812 11.292-3.736c.96-.316 1.924-.634 2.892-.956l2.876-1.112 5.83-2.26 11.932-4.646c3.96-1.768 7.988-3.566 12.08-5.392l6.156-2.746c2.06-.932 4.072-2.036 6.126-3.054l12.41-6.294c4.144-2.202 8.226-4.654 12.394-6.998 2.074-1.184 4.16-2.374 6.256-3.572 2.086-1.21 4.102-2.586 6.166-3.876 4.098-2.616 8.23-5.256 12.402-7.918 16.296-11.234 32.398-23.632 47.636-37.33 15.104-13.874 29.406-28.842 42.55-44.598 12.928-15.974 24.648-32.686 35.02-49.676 10.196-17.13 18.84-34.6 26.26-51.736l5.05-12.932c.812-2.136 1.71-4.216 2.444-6.36.714-2.146 1.428-4.28 2.136-6.404 1.386-4.25 2.888-8.384 4.142-12.548l3.474-12.392c.55-2.038 1.19-4.026 1.66-6.054l1.368-6.046c.91-3.978 1.808-7.896 2.688-11.748.688-3.888 1.362-7.71 2.024-11.462l.98-5.548.484-2.728.332-2.734c.446-3.612.882-7.148 1.31-10.604l.642-5.1c.226-1.674.268-3.364.41-5.01.238-3.292.472-6.498.7-9.616.218-3.11.524-6.11.508-9.058.132-5.848.256-11.32.372-16.38-.168-4.664-.324-8.948-.462-12.818l-.156-5.432-.378-5.958-.38-5.82c-.498-3.256-.768-6.592-.768-9.99 0-.468.026-.93.036-1.396l-.016-.224h.022c.768-30.766 23.236-56.128 52.682-61.37l-.198-.884c-.644-3.248-1.632-6.542-2.556-9.942l-2.88-10.454c-.516-1.78-.934-3.602-1.546-5.406-.596-1.802-1.202-3.628-1.81-5.476l-3.736-11.294c-.316-.958-.634-1.924-.956-2.892l-1.114-2.876-2.26-5.83-4.646-11.93-5.392-12.08c-.908-2.038-1.824-4.09-2.746-6.156-.932-2.06-2.036-4.072-3.052-6.126l-6.294-12.412c-2.202-4.142-4.654-8.224-6.998-12.392l-3.57-6.256c-1.21-2.086-2.586-4.102-3.876-6.166l-7.918-12.402c-11.234-16.298-23.632-32.398-37.33-47.638-13.874-15.104-28.842-29.404-44.598-42.548-15.974-12.928-32.686-24.65-49.676-35.022-17.13-10.194-34.6-18.838-51.734-26.258-4.35-1.7-8.662-3.382-12.934-5.05-2.136-.812-4.216-1.71-6.36-2.444-2.146-.714-4.28-1.428-6.404-2.136-4.25-1.386-8.382-2.888-12.548-4.142-4.184-1.174-8.314-2.332-12.392-3.474-2.038-.55-4.026-1.19-6.054-1.662-2.03-.458-4.044-.914-6.044-1.368-3.978-.91-7.896-1.806-11.748-2.688l-11.462-2.022-5.546-.98-2.728-.484-2.734-.332c-3.612-.448-7.148-.882-10.604-1.31l-5.102-.644c-1.674-.226-3.364-.266-5.01-.408-3.292-.238-6.498-.472-9.616-.7-3.11-.218-6.11-.524-9.058-.508-5.848-.132-11.32-.256-16.38-.372-4.664.168-8.948.324-12.818.462l-5.432.156-5.958.378-5.82.38c-3.256.51-6.592.782-9.99.782-.466 0-.93-.026-1.396-.036l-.224.014v-.02c-31.004-.774-56.524-23.586-61.488-53.364-3.2.64-6.446 1.61-9.792 2.522-3.386.934-6.876 1.894-10.454 2.878-1.778.516-3.602.938-5.404 1.546-1.802.598-3.63 1.204-5.478 1.812-3.68 1.218-7.448 2.464-11.292 3.738-.96.316-1.924.632-2.892.954l-2.876 1.114c-1.926.746-3.868 1.5-5.83 2.258-3.904 1.524-7.884 3.07-11.932 4.648-3.96 1.77-7.988 3.566-12.08 5.39-2.038.91-4.088 1.824-6.156 2.746-2.06.934-4.072 2.036-6.126 3.054l-12.41 6.296c-4.144 2.2-8.226 4.652-12.394 6.996-2.074 1.184-4.16 2.376-6.256 3.57-2.086 1.21-4.102 2.586-6.166 3.878-4.098 2.614-8.23 5.254-12.402 7.918-16.296 11.23-32.398 23.632-47.636 37.328-15.104 13.876-29.406 28.84-42.55 44.598-12.928 15.972-24.648 32.684-35.02 49.676-10.196 17.128-18.84 34.602-26.26 51.734-1.698 4.352-3.382 8.664-5.05 12.934-.812 2.136-1.71 4.218-2.444 6.36-.714 2.148-1.428 4.282-2.136 6.406-1.386 4.25-2.888 8.382-4.142 12.546l-3.474 12.394c-.55 2.036-1.19 4.024-1.66 6.054-.46 2.028-.916 4.042-1.368 6.042-.91 3.98-1.808 7.898-2.688 11.75-.688 3.886-1.362 7.71-2.024 11.46l-.98 5.546-.484 2.73-.332 2.734c-.446 3.61-.882 7.148-1.31 10.602l-.642 5.102c-.226 1.676-.268 3.364-.41 5.012-.238 3.29-.472 6.496-.7 9.614-.218 3.11-.524 6.11-.508 9.058-.132 5.848-.256 11.32-.372 16.382.168 4.664.324 8.946.462 12.816l.156 5.434.378 5.958.38 5.82c.496 3.26.766 6.596.766 9.994 0 .466-.026.93-.036 1.396l.016.224h-.022c-.78 31.38-24.134 57.154-54.44 61.674z"/><glyph unicode="" d="M1024 576h-384l143.53 143.53c-72.53 72.526-168.96 112.47-271.53 112.47s-199-39.944-271.53-112.47c-72.526-72.53-112.47-168.96-112.47-271.53s39.944-199 112.47-271.53c72.53-72.526 168.96-112.47 271.53-112.47s199 39.944 271.528 112.472c6.056 6.054 11.86 12.292 17.456 18.668l96.32-84.282c-93.846-107.166-231.664-174.858-385.304-174.858-282.77 0-512 229.23-512 512s229.23 512 512 512c141.386 0 269.368-57.326 362.016-149.984l149.984 149.984v-384z"/><glyph unicode="" d="M64 960h384v-64h-384zm512 0h384v-64h-384zm376-320h-56v256h-256v-256h-256v256h-256v-256h-56c-39.6 0-72-32.4-72-72v-560c0-39.6 32.4-72 72-72h304c39.6 0 72 32.4 72 72v376h128v-376c0-39.6 32.4-72 72-72h304c39.6 0 72 32.4 72 72v560c0 39.6-32.4 72-72 72zm-604-640h-248c-19.8 0-36 14.4-36 32s16.2 32 36 32h248c19.8 0 36-14.4 36-32s-16.2-32-36-32zm196 448h-64c-17.6 0-32 14.4-32 32s14.4 32 32 32h64c17.6 0 32-14.4 32-32s-14.4-32-32-32zm380-448h-248c-19.8 0-36 14.4-36 32s16.2 32 36 32h248c19.8 0 36-14.4 36-32s-16.2-32-36-32z"/><glyph unicode="" d="M992.262 88.604l-242.552 206.294c-25.074 22.566-51.89 32.926-73.552 31.926 57.256 67.068 91.842 154.078 91.842 249.176 0 212.078-171.922 384-384 384-212.076 0-384-171.922-384-384s171.922-384 384-384c95.098 0 182.108 34.586 249.176 91.844-1-21.662 9.36-48.478 31.926-73.552l206.294-242.552c35.322-39.246 93.022-42.554 128.22-7.356s31.892 92.898-7.354 128.22zm-608.262 231.396c-141.384 0-256 114.616-256 256s114.616 256 256 256 256-114.616 256-256-114.614-256-256-256z"/><glyph unicode="" d="M992.262 88.604l-242.552 206.294c-25.074 22.566-51.89 32.926-73.552 31.926 57.256 67.068 91.842 154.078 91.842 249.176 0 212.078-171.922 384-384 384-212.076 0-384-171.922-384-384s171.922-384 384-384c95.098 0 182.108 34.586 249.176 91.844-1-21.662 9.36-48.478 31.926-73.552l206.294-242.552c35.322-39.246 93.022-42.554 128.22-7.356s31.892 92.898-7.354 128.22zm-608.262 231.396c-141.384 0-256 114.616-256 256s114.616 256 256 256 256-114.616 256-256-114.614-256-256-256zm64 448h-128v-128h-128v-128h128v-128h128v128h128v128h-128z"/><glyph unicode="" d="M992.262 88.604l-242.552 206.294c-25.074 22.566-51.89 32.926-73.552 31.926 57.256 67.068 91.842 154.078 91.842 249.176 0 212.078-171.922 384-384 384-212.076 0-384-171.922-384-384s171.922-384 384-384c95.098 0 182.108 34.586 249.176 91.844-1-21.662 9.36-48.478 31.926-73.552l206.294-242.552c35.322-39.246 93.022-42.554 128.22-7.356s31.892 92.898-7.354 128.22zm-608.262 231.396c-141.384 0-256 114.616-256 256s114.616 256 256 256 256-114.616 256-256-114.614-256-256-256zm-192 320h384v-128h-384z"/><glyph unicode="" d="M1024 960h-416l160-160-192-192 96-96 192 192 160-160zm0-1024v416l-160-160-192 192-96-96 192-192-160-160zm-1024 0h416l-160 160 192 192-96 96-192-192-160 160zm0 1024v-416l160 160 192-192 96 96-192 192 160 160z"/><glyph unicode="" d="M576 512h416l-160 160 192 192-96 96-192-192-160 160zm0-128v-416l160 160 192-192 96 96-192 192 160 160zm-128 .004h-416l160-160-192-192 96-96 192 192 160-160zm0 127.996v416l-160-160-192 192-96-96 192-192-160-160z"/><glyph unicode="" d="M1024 960v-416l-160 160-192-192-96 96 192 192-160 160zm-576-672l-192-192 160-160h-416v416l160-160 192 192z"/><glyph unicode="" d="M448 384v-416l-160 160-192-192-96 96 192 192-160 160zm576 480l-192-192 160-160h-416v416l160-160 192 192z"/><glyph unicode="" d="M704 960c-176.73 0-320-143.268-320-320 0-20.026 1.858-39.616 5.376-58.624l-389.376-389.376v-192c0-35.346 28.654-64 64-64h64v64h128v128h128v128h128l83.042 83.042c34.01-12.316 70.696-19.042 108.958-19.042 176.73 0 320 143.268 320 320s-143.27 320-320 320zm95.874-320.126c-53.02 0-96 42.98-96 96s42.98 96 96 96 96-42.98 96-96-42.98-96-96-96z"/><glyph unicode="" d="M1002.132 645.758l-101.106 101.104c-24.792 24.794-65.37 65.368-90.162 90.164l-101.106 101.104c-24.792 24.794-68.954 29.166-98.13 9.716l-276.438-184.292c-29.176-19.452-40.218-61.028-24.536-92.39l70.486-140.974c2.154-4.306 4.646-8.896 7.39-13.66l-356.53-356.53-32-224h192v64h128v128h128v128h128v71.186c6.396-3.812 12.534-7.216 18.192-10.044l140.97-70.488c31.366-15.682 72.94-4.638 92.39 24.538l184.294 276.44c19.454 29.172 15.078 73.33-9.714 98.126zm-851.504-540.384l-45.254 45.254 311.572 311.57 45.254-45.254-311.572-311.57zm766.392 430.862l-45.256-45.256c-12.446-12.444-32.808-12.444-45.254 0l-271.53 271.53c-12.446 12.444-12.446 32.81 0 45.254l45.256 45.256c12.446 12.444 32.808 12.444 45.254 0l271.53-271.53c12.446-12.444 12.446-32.81 0-45.254z"/><glyph unicode="" d="M592 512h-16v192c0 105.87-86.13 192-192 192h-128c-105.87 0-192-86.13-192-192v-192h-16c-26.4 0-48-21.6-48-48v-480c0-26.4 21.6-48 48-48h544c26.4 0 48 21.6 48 48v480c0 26.4-21.6 48-48 48zm-400 192c0 35.29 28.71 64 64 64h128c35.29 0 64-28.71 64-64v-192h-256v192z"/><glyph unicode="" d="M768 896c105.87 0 192-86.13 192-192v-192h-128v192c0 35.29-28.71 64-64 64h-128c-35.29 0-64-28.71-64-64v-192h16c26.4 0 48-21.6 48-48v-480c0-26.4-21.6-48-48-48h-544c-26.4 0-48 21.6-48 48v480c0 26.4 21.6 48 48 48h400v192c0 105.87 86.13 192 192 192h128z"/><glyph unicode="" d="M1002.934 142.124l-460.552 394.76c21.448 40.298 33.618 86.282 33.618 135.116 0 159.058-128.942 288-288 288-29.094 0-57.172-4.332-83.646-12.354l166.39-166.39c24.89-24.89 24.89-65.62 0-90.51l-101.49-101.49c-24.89-24.89-65.62-24.89-90.51 0l-166.39 166.39c-8.022-26.474-12.354-54.552-12.354-83.646 0-159.058 128.942-288 288-288 48.834 0 94.818 12.17 135.116 33.62l394.76-460.552c22.908-26.724 62.016-28.226 86.904-3.338l101.492 101.492c24.888 24.888 23.386 63.994-3.338 86.902z"/><glyph unicode="" d="M448 832v16c0 26.4-21.6 48-48 48h-160c-26.4 0-48-21.6-48-48v-16h-192v-128h192v-16c0-26.4 21.6-48 48-48h160c26.4 0 48 21.6 48 48v16h576v128h-576zm-192-128v128h128v-128h-128zm576-176c0 26.4-21.6 48-48 48h-160c-26.4 0-48-21.6-48-48v-16h-576v-128h576v-16c0-26.4 21.6-48 48-48h160c26.4 0 48 21.6 48 48v16h192v128h-192v16zm-192-144v128h128v-128h-128zm-192-176c0 26.4-21.6 48-48 48h-160c-26.4 0-48-21.6-48-48v-16h-192v-128h192v-16c0-26.4 21.6-48 48-48h160c26.4 0 48 21.6 48 48v16h576v128h-576v16zm-192-144v128h128v-128h-128z"/><glyph unicode="" d="M896 512h16c26.4 0 48 21.6 48 48v160c0 26.4-21.6 48-48 48h-16v192h-128v-192h-16c-26.4 0-48-21.6-48-48v-160c0-26.4 21.6-48 48-48h16v-576h128v576zm-128 192h128v-128h-128v128zm-176-576c26.4 0 48 21.6 48 48v160c0 26.4-21.6 48-48 48h-16v576h-128v-576h-16c-26.4 0-48-21.6-48-48v-160c0-26.4 21.6-48 48-48h16v-192h128v192h16zm-144 192h128v-128h-128v128zm-176 192c26.4 0 48 21.6 48 48v160c0 26.4-21.6 48-48 48h-16v192h-128v-192h-16c-26.4 0-48-21.6-48-48v-160c0-26.4 21.6-48 48-48h16v-576h128v576h16zm-144 192h128v-128h-128v128z"/><glyph unicode="" d="M933.79 349.75c-53.726 93.054-21.416 212.304 72.152 266.488l-100.626 174.292c-28.75-16.854-62.176-26.518-97.846-26.518-107.536 0-194.708 87.746-194.708 195.99h-201.258c.266-33.41-8.074-67.282-25.958-98.252-53.724-93.056-173.156-124.702-266.862-70.758l-100.624-174.292c28.97-16.472 54.05-40.588 71.886-71.478 53.638-92.908 21.512-211.92-71.708-266.224l100.626-174.292c28.65 16.696 61.916 26.254 97.4 26.254 107.196 0 194.144-87.192 194.7-194.958h201.254c-.086 33.074 8.272 66.57 25.966 97.218 53.636 92.906 172.776 124.594 266.414 71.012l100.626 174.29c-28.78 16.466-53.692 40.498-71.434 71.228zm-421.79-109.082c-114.508 0-207.336 92.824-207.336 207.334 0 114.508 92.826 207.334 207.336 207.334 114.508 0 207.332-92.826 207.332-207.334-.002-114.51-92.824-207.334-207.332-207.334z"/><glyph unicode="" d="M363.722 237.948l41.298 57.816-45.254 45.256-57.818-41.296c-10.722 5.994-22.204 10.774-34.266 14.192l-11.682 70.084h-64l-11.68-70.086c-12.062-3.418-23.544-8.198-34.266-14.192l-57.818 41.298-45.256-45.256 41.298-57.816c-5.994-10.72-10.774-22.206-14.192-34.266l-70.086-11.682v-64l70.086-11.682c3.418-12.06 8.198-23.544 14.192-34.266l-41.298-57.816 45.254-45.256 57.818 41.296c10.722-5.994 22.204-10.774 34.266-14.192l11.682-70.084h64l11.68 70.086c12.062 3.418 23.544 8.198 34.266 14.192l57.818-41.296 45.254 45.256-41.298 57.816c5.994 10.72 10.774 22.206 14.192 34.266l70.088 11.68v64l-70.086 11.682c-3.418 12.06-8.198 23.544-14.192 34.266zm-139.722-141.948c-35.348 0-64 28.654-64 64s28.652 64 64 64 64-28.654 64-64-28.652-64-64-64zm800 480v64l-67.382 12.25c-1.242 8.046-2.832 15.978-4.724 23.79l57.558 37.1-24.492 59.128-66.944-14.468c-4.214 6.91-8.726 13.62-13.492 20.13l39.006 56.342-45.256 45.254-56.342-39.006c-6.512 4.766-13.22 9.276-20.13 13.494l14.468 66.944-59.128 24.494-37.1-57.558c-7.812 1.892-15.744 3.482-23.79 4.724l-12.252 67.382h-64l-12.252-67.382c-8.046-1.242-15.976-2.832-23.79-4.724l-37.098 57.558-59.128-24.492 14.468-66.944c-6.91-4.216-13.62-8.728-20.13-13.494l-56.342 39.006-45.254-45.254 39.006-56.342c-4.766-6.51-9.278-13.22-13.494-20.13l-66.944 14.468-24.492-59.128 57.558-37.1c-1.892-7.812-3.482-15.742-4.724-23.79l-67.384-12.252v-64l67.382-12.25c1.242-8.046 2.832-15.978 4.724-23.79l-57.558-37.1 24.492-59.128 66.944 14.468c4.216-6.91 8.728-13.618 13.494-20.13l-39.006-56.342 45.254-45.256 56.342 39.006c6.51-4.766 13.22-9.276 20.13-13.492l-14.468-66.944 59.128-24.492 37.102 57.558c7.81-1.892 15.742-3.482 23.788-4.724l12.252-67.384h64l12.252 67.382c8.044 1.242 15.976 2.832 23.79 4.724l37.1-57.558 59.128 24.492-14.468 66.944c6.91 4.216 13.62 8.726 20.13 13.492l56.342-39.006 45.256 45.256-39.006 56.342c4.766 6.512 9.276 13.22 13.492 20.13l66.944-14.468 24.492 59.13-57.558 37.1c1.892 7.812 3.482 15.742 4.724 23.79l67.382 12.25zm-352-107.2c-76.878 0-139.2 62.322-139.2 139.2s62.32 139.2 139.2 139.2 139.2-62.322 139.2-139.2c0-76.878-62.32-139.2-139.2-139.2z"/><glyph unicode="" d="M1009.996 131.024l-301.544 301.544c-18.668 18.668-49.214 18.668-67.882 0l-22.626-22.626-184 184 302.056 302.058h-320l-142.058-142.058-14.06 14.058h-67.882v-67.882l14.058-14.058-206.058-206.06 160-160 206.058 206.058 184-184-22.626-22.626c-18.668-18.668-18.668-49.214 0-67.882l301.544-301.544c18.668-18.668 49.214-18.668 67.882 0l113.136 113.136c18.67 18.666 18.67 49.214.002 67.882z"/><glyph unicode="" d="M256 768l-128 128h-64v-64l128-128zm64 192h64v-128h-64zm256-320h128v-64h-128zm64 192v64h-64l-128-128 64-64zm-640-192h128v-64h-128zm320-256h64v-128h-64zm-256 0v-64h64l128 128-64 64zm946-306l-636.118 636.118c-18.668 18.668-49.214 18.668-67.882 0l-60.118-60.118c-18.668-18.668-18.668-49.214 0-67.882l636.118-636.118c18.668-18.668 49.214-18.668 67.882 0l60.118 60.118c18.668 18.668 18.668 49.214 0 67.882zm-530 338l-192 192 64 64 192-192-64-64z"/><glyph unicode="" d="M896 704h-192v128c0 35.2-28.8 64-64 64h-256c-35.2 0-64-28.8-64-64v-128h-192c-70.4 0-128-57.6-128-128v-512c0-70.4 57.6-128 128-128h768c70.4 0 128 57.6 128 128v512c0 70.4-57.6 128-128 128zm-512 128h256v-128h-256v128zm384-576h-192v-192h-128v192h-192v128h192v192h128v-192h192v-128z"/><glyph unicode="" d="M1024 384v64h-193.29c-5.862 72.686-31.786 139.026-71.67 192.25h161.944l70.06 280.24-62.09 15.522-57.94-231.76h-174.68c-.892.694-1.796 1.374-2.698 2.056 6.71 19.502 10.362 40.422 10.362 62.194.002 105.76-85.958 191.498-191.998 191.498s-192-85.738-192-191.5c0-21.772 3.65-42.692 10.362-62.194-.9-.684-1.804-1.362-2.698-2.056h-174.68l-57.94 231.76-62.09-15.522 70.06-280.24h161.944c-39.884-53.222-65.806-119.562-71.668-192.248h-193.29v-64h193.37c3.802-45.664 15.508-88.812 33.638-127.75h-123.992l-70.06-280.238 62.09-15.524 57.94 231.762h112.354c58.692-78.032 147.396-127.75 246.66-127.75s187.966 49.718 246.662 127.75h112.354l57.94-231.762 62.09 15.524-70.06 280.238h-123.992c18.13 38.938 29.836 82.086 33.636 127.75h193.37z"/><glyph unicode="" d="M448 384v448c-247.424 0-448-200.576-448-448s200.576-448 448-448 448 200.576 448 448c0 72.034-17.028 140.084-47.236 200.382l-400.764-200.382zm464.764 328.382c-73.552 146.816-225.374 247.618-400.764 247.618v-448l400.764 200.382z"/><glyph unicode="" d="M128 64h896v-128h-1024v1024h128zm160 64c-53.02 0-96 42.98-96 96s42.98 96 96 96c2.828 0 5.622-.148 8.388-.386l103.192 171.986c-9.84 15.07-15.58 33.062-15.58 52.402 0 53.02 42.98 96 96 96s96-42.98 96-96c0-19.342-5.74-37.332-15.58-52.402l103.192-171.986c2.766.238 5.56.386 8.388.386 2.136 0 4.248-.094 6.35-.23l170.356 298.122c-10.536 15.408-16.706 34.036-16.706 54.11 0 53.02 42.98 96 96 96s96-42.98 96-96-42.98-96-96-96c-2.14 0-4.248.094-6.35.232l-170.356-298.124c10.536-15.406 16.706-34.036 16.706-54.11 0-53.02-42.98-96-96-96s-96 42.98-96 96c0 19.34 5.74 37.332 15.578 52.402l-103.19 171.984c-2.766-.238-5.56-.386-8.388-.386s-5.622.146-8.388.386l-103.192-171.986c9.84-15.068 15.58-33.06 15.58-52.4 0-53.02-42.98-96-96-96z"/><glyph unicode="" d="M0 128h1024v-128h-1024zm128 256h128v-192h-128zm192 256h128v-448h-128zm192-192h128v-256h-128zm192 384h128v-640h-128z"/><glyph unicode="" d="M288 576h-192c-17.6 0-32-14.4-32-32v-576c0-17.6 14.4-32 32-32h192c17.6 0 32 14.4 32 32v576c0 17.6-14.4 32-32 32zm0-576h-192v256h192v-256zm320 704h-192c-17.6 0-32-14.4-32-32v-704c0-17.6 14.4-32 32-32h192c17.6 0 32 14.4 32 32v704c0 17.6-14.4 32-32 32zm0-704h-192v320h192v-320zm320 832h-192c-17.6 0-32-14.4-32-32v-832c0-17.6 14.4-32 32-32h192c17.6 0 32 14.4 32 32v832c0 17.6-14.4 32-32 32zm0-832h-192v384h192v-384z"/><glyph unicode="" d="M832 768v128h-640v-128h-192v-128c0-106.038 85.958-192 192-192 20.076 0 39.43 3.086 57.62 8.802 46.174-66.008 116.608-113.796 198.38-130.396v-198.406h-64c-70.694 0-128-57.306-128-128h512c0 70.694-57.306 128-128 128h-64v198.406c81.772 16.6 152.206 64.386 198.38 130.396 18.19-5.716 37.544-8.802 57.62-8.802 106.042 0 192 85.962 192 192v128h-192zm-640-244c-63.962 0-116 52.038-116 116v64h116v-64c0-40.186 7.43-78.632 20.954-114.068-6.802-1.246-13.798-1.932-20.954-1.932zm756 116c0-63.962-52.038-116-116-116-7.156 0-14.152.686-20.954 1.932 13.524 35.436 20.954 73.882 20.954 114.068v64h116v-64z"/><glyph unicode="" d="M771.516 640c18.126 12.88 35.512 27.216 51.444 43.148 33.402 33.402 55.746 74.5 62.912 115.722 7.858 45.186-3.672 87.14-31.63 115.1-22.3 22.298-52.51 34.086-87.364 34.086-49.632 0-101.922-23.824-143.46-65.362-66.476-66.476-105.226-158.238-126.076-223.722-15.44 65.802-46.206 154.644-106.018 214.458-32.094 32.092-73.114 48.57-111.846 48.57-31.654 0-61.78-11.004-84.26-33.486-49.986-49.988-43.232-137.786 15.086-196.104 20.792-20.792 45.098-38.062 70.72-52.412h-217.024v-256h64v-448h768v448.002h64v256h-188.484zm-97.19 191.782c27.724 27.724 62.322 44.274 92.55 44.274 10.7 0 25.708-2.254 36.45-12.998 26.03-26.028 11.412-86.308-31.28-128.998-43.946-43.946-103.06-74.168-154.432-94.06h-50.672c18.568 57.548 52.058 136.456 107.384 191.782zm-440.392-32.672c-.702 9.12-.05 26.248 12.196 38.494 10.244 10.244 23.788 12.396 33.348 12.396 21.258 0 43.468-10.016 60.932-27.48 33.872-33.872 61.766-87.772 80.668-155.876.51-1.84 1.008-3.67 1.496-5.486-1.816.486-3.646.984-5.486 1.496-68.104 18.904-122.002 46.798-155.874 80.67-15.828 15.826-25.77 36.16-27.28 55.786zm214.066-799.11h-256v416h256v-416zm0 448h-320v128h320v-128zm384-448h-256v416h256v-416zm64 448h-320v128h320v-128z"/><glyph unicode="" d="M777.784 943.144c-5.576 10.38-16.406 16.856-28.19 16.856h-475.188c-11.784 0-22.614-6.476-28.19-16.856-35.468-66.02-54.216-143.184-54.216-223.144 0-105.412 32.372-204.828 91.154-279.938 45.428-58.046 102.48-96.54 164.846-112.172v-327.89h-96c-17.672 0-32-14.326-32-32s14.328-32 32-32h320c17.674 0 32 14.326 32 32s-14.326 32-32 32h-96v327.89c62.368 15.632 119.418 54.124 164.846 112.172 58.782 75.11 91.154 174.526 91.154 279.938 0 79.96-18.748 157.122-54.216 223.144zm-483.684-47.144h435.8c24.974-52.902 38.1-113.338 38.1-176 0-5.364-.108-10.696-.296-16h-511.406c-.19 5.304-.296 10.636-.296 16-.002 62.664 13.126 123.098 38.098 176z"/><glyph unicode="" d="M889.162 780.23c7.568 9.632 8.972 22.742 3.62 33.758-5.356 11.018-16.532 18.012-28.782 18.012h-704c-12.25 0-23.426-6.994-28.78-18.012-5.356-11.018-3.95-24.126 3.618-33.758l313.162-398.57v-381.66h-96c-17.672 0-32-14.326-32-32s14.328-32 32-32h320c17.674 0 32 14.326 32 32s-14.326 32-32 32h-96v381.66l313.162 398.57zm-91-12.23l-100.572-128h-371.18l-100.57 128h572.322z"/><glyph unicode="" d="M960 640h-192v96c0 88.366-171.922 160-384 160s-384-71.634-384-160v-640c0-88.366 171.922-160 384-160s384 71.634 384 160v96h192c35.346 0 64 28.654 64 64v320c0 35.346-28.654 64-64 64zm-783.944 61.602c-36.994 12.19-59.408 25.246-71.41 34.398 12.004 9.152 34.416 22.208 71.41 34.398 57.942 19.09 131.79 29.602 207.944 29.602s150.004-10.512 207.944-29.602c36.994-12.188 59.408-25.246 71.41-34.398-12.002-9.152-34.416-22.208-71.41-34.398-57.94-19.09-131.79-29.602-207.944-29.602s-150.002 10.512-207.944 29.602zm719.944-381.602h-128v192h128v-192z"/><glyph unicode="" d="M224 960c-106.04 0-192-100.288-192-224 0-105.924 63.022-194.666 147.706-217.998l-31.788-518.124c-2.154-35.132 24.882-63.878 60.082-63.878h32c35.2 0 62.236 28.746 60.082 63.878l-31.788 518.124c84.684 23.332 147.706 112.074 147.706 217.998 0 123.712-85.96 224-192 224zm645.334 0l-53.334-320h-40l-26.666 320h-26.668l-26.666-320h-40l-53.334 320h-26.666v-416c0-17.672 14.326-32 32-32h83.338l-31.42-512.122c-2.154-35.132 24.882-63.878 60.082-63.878h32c35.2 0 62.236 28.746 60.082 63.878l-31.42 512.122h83.338c17.674 0 32 14.328 32 32v416h-26.666z"/><glyph unicode="" d="M1011.328 825.504c-110.752 83.928-281.184 134.034-455.91 134.034-216.12 0-392.226-75.456-483.16-207.02-42.708-61.79-66.33-134.958-70.208-217.474-3.454-73.474 8.884-154.726 36.684-242.146 94.874 284.384 359.82 507.102 665.266 507.102 0 0-285.826-75.232-465.524-308.192-.112-.138-2.494-3.09-6.614-8.698-36.08-48.278-67.538-103.162-91.078-165.328-39.87-94.83-76.784-224.948-76.784-381.782h128s-19.43 122.222 14.36 262.79c55.89-7.556 105.858-11.306 150.852-11.306 117.678 0 201.37 25.46 263.388 80.124 55.568 48.978 86.198 114.786 118.624 184.456 49.524 106.408 105.654 227.01 268.654 320.152 9.33 5.332 15.362 14.992 16.056 25.716s-4.04 21.08-12.606 27.572z"/><glyph unicode="" d="M704 896l-320-320h-192l-192-256s203.416 56.652 322.066 30.084l-322.066-414.084 421.902 328.144c58.838-134.654-37.902-328.144-37.902-328.144l256 192v192l320 320 64 320-320-64z"/><glyph unicode="" d="M512 896c282.77 0 512-229.23 512-512 0-192.792-106.576-360.666-264.008-448h-495.984c-157.432 87.334-264.008 255.208-264.008 448 0 282.77 229.23 512 512 512zm289.914-801.914c77.438 77.44 120.086 180.398 120.086 289.914h-90v64h85.038c-7.014 44.998-21.39 88.146-42.564 128h-106.474v64h64.284c-9.438 11.762-19.552 23.096-30.37 33.914-46.222 46.22-101.54 80.038-161.914 99.798v-69.712h-64v85.04c-20.982 3.268-42.36 4.96-64 4.96s-43.018-1.69-64-4.96v-85.04h-64v69.712c-60.372-19.76-115.692-53.576-161.914-99.798-10.818-10.818-20.932-22.152-30.37-33.914h64.284v-64h-106.476c-21.174-39.854-35.552-83.002-42.564-128h85.04v-64h-90c0-109.516 42.648-212.474 120.086-289.914 10.71-10.71 21.924-20.728 33.56-30.086h192.354l36.572 512h54.856l36.572-512h192.354c11.636 9.358 22.852 19.378 33.56 30.086z"/><glyph unicode="" d="M512 960c-282.77 0-512-229.23-512-512s229.23-512 512-512 512 229.23 512 512-229.23 512-512 512zm-209.164-834.152c11.106 30.632 17.164 63.688 17.164 98.152 0 124.35-78.81 230.292-189.208 270.606 10.21 84.924 48.254 163.498 109.678 224.924 72.53 72.526 168.96 112.47 271.53 112.47s199-39.944 271.53-112.47c61.428-61.426 99.468-140 109.682-224.924-110.402-40.314-189.212-146.256-189.212-270.606 0-34.468 6.06-67.52 17.166-98.15-61.706-40.242-133.77-61.85-209.166-61.85-75.394 0-147.458 21.608-209.164 61.848zm248.918 193.156c13.878-3.494 24.246-16.08 24.246-31.004v-64c0-17.6-14.4-32-32-32h-64c-17.6 0-32 14.4-32 32v64c0 14.924 10.368 27.51 24.246 31.004l23.754 448.996h32l23.754-448.996z"/><glyph unicode="" d="M1010.174 44.25l-548.634 499.458 25.534 25.598c20.894 20.954 32.188 48.03 33.918 75.61 1.002.45 2.002.912 2.958 1.442l102.99 64.402c13.934 16.392 12.916 42.268-2.284 57.502l-179.12 179.608c-15.19 15.234-40.998 16.262-57.344 2.284l-64.236-103.268c-.526-.966-.99-1.966-1.44-2.974-27.502-1.736-54.5-13.056-75.398-34.006l-97.428-97.702c-20.898-20.956-32.184-48.026-33.918-75.604-1.004-.45-2.004-.916-2.964-1.446l-102.986-64.406c-13.942-16.39-12.916-42.264 2.276-57.496l179.12-179.604c15.194-15.238 40.996-16.262 57.35-2.286l64.228 103.27c.528.958.988 1.96 1.442 2.966 27.502 1.738 54.504 13.05 75.398 34.004l28.292 28.372 498.122-550.114c14.436-15.944 36.7-18.518 49.474-5.712l50.356 50.488c12.764 12.808 10.196 35.132-5.706 49.614z"/><glyph unicode="" d="M321.008-64c-68.246 142.008-31.902 223.378 20.55 300.044 57.44 83.956 72.244 167.066 72.244 167.066s45.154-58.7 27.092-150.508c79.772 88.8 94.824 230.28 82.782 284.464 180.314-126.012 257.376-398.856 153.522-601.066 552.372 312.532 137.398 780.172 65.154 832.85 24.082-52.676 28.648-141.85-20-185.126-82.352 312.276-285.972 376.276-285.972 376.276 24.082-161.044-87.296-337.144-194.696-468.73-3.774 64.216-7.782 108.528-41.55 169.98-7.58-116.656-96.732-211.748-120.874-328.628-32.702-158.286 24.496-274.18 241.748-396.622z"/><glyph unicode="" d="M956.29 155.518l-316.29 527.024v213.458h32c17.6 0 32 14.4 32 32s-14.4 32-32 32h-320c-17.6 0-32-14.4-32-32s14.4-32 32-32h32v-213.458l-316.288-527.024c-72.442-120.734-16.512-219.518 124.288-219.518h640c140.8 0 196.73 98.784 124.29 219.518zm-715.252 164.482l206.962 344.938v231.062h128v-231.062l206.964-344.938h-541.926z"/><glyph unicode="" d="M896 960h-256l64-576c0-106.04-85.96-192-192-192s-192 85.96-192 192l64 576h-256l-64-576c0-247.424 200.576-448 448-448s448 200.576 448 448l-64 576zm-118.126-841.874c-71.018-71.014-165.44-110.126-265.874-110.126s-194.856 39.112-265.872 110.126c-70.116 70.118-109.13 163.048-110.11 262.054l36.092 324.82h111.114l-35.224-317.01v-3.99c0-70.518 27.46-136.814 77.324-186.676 49.862-49.864 116.158-77.324 186.676-77.324s136.814 27.46 186.676 77.324c49.864 49.862 77.324 116.158 77.324 186.676v3.988l-.44 3.962-34.782 313.05h111.114l36.09-324.818c-.98-99.006-39.994-191.938-110.108-262.056z"/><glyph unicode="" d="M128 640v-640c0-35.2 28.8-64 64-64h576c35.2 0 64 28.8 64 64v640h-704zm192-576h-64v448h64v-448zm128 0h-64v448h64v-448zm128 0h-64v448h64v-448zm128 0h-64v448h64v-448zm144 768h-208v80c0 26.4-21.6 48-48 48h-224c-26.4 0-48-21.6-48-48v-80h-208c-26.4 0-48-21.6-48-48v-80h832v80c0 26.4-21.6 48-48 48zm-272 0h-192v63.198h192v-63.198z"/><glyph unicode="" d="M192-64h640l64 704h-768zm448 896v128h-256v-128h-320v-192l64 64h768l64-64v192h-320zm-64 0h-128v64h128v-64z"/><glyph unicode="" d="M960 704h-256v64c0 35.2-28.8 64-64 64h-256c-35.204 0-64-28.8-64-64v-64h-256c-35.2 0-64-28.8-64-64v-576c0-35.202 28.796-64 64-64h896c35.2 0 64 28.798 64 64v576c0 35.2-28.8 64-64 64zm-576 63.884l.114.116h255.772l.118-.116v-63.884h-256.004v63.884zm576-319.884h-128v-96c0-17.602-14.4-32-32-32h-64c-17.604 0-32 14.398-32 32v96h-384v-96c0-17.602-14.4-32-32-32h-64c-17.602 0-32 14.398-32 32v96h-128v64h896v-64z"/><glyph unicode="" d="M768 320.032l-182.82 182.822 438.82 329.15-128.01 127.996-548.52-219.442-172.7 172.706c-49.78 49.778-119.302 61.706-154.502 26.508-35.198-35.198-23.268-104.726 26.51-154.5l172.686-172.684-219.464-548.582 127.99-128.006 329.19 438.868 182.826-182.828v-255.98h127.994l63.992 191.988 191.988 63.996v127.992l-255.98-.004z"/><glyph unicode="" d="M1024 384l-128 256h-192v128c0 35.2-28.8 64-64 64h-576c-35.2 0-64-28.8-64-64v-512l64-64h81.166c-10.898-18.832-17.166-40.678-17.166-64 0-70.692 57.308-128 128-128s128 57.308 128 128c0 23.322-6.268 45.168-17.166 64h354.334c-10.898-18.832-17.168-40.678-17.168-64 0-70.692 57.308-128 128-128s128 57.308 128 128c0 23.322-6.27 45.168-17.168 64h81.168v192zm-320 0v192h132.668l96-192h-228.668z"/><glyph unicode="" d="M704-64h320l-256 1024h-192l32-256h-192l32 256h-192l-256-1024h320l32 256h320l32-256zm-336 384l32 256h224l32-256h-288z"/><glyph unicode="" d="M416 864c0 53.018 42.98 96 96 96s96-42.982 96-96c0-53.02-42.98-96-96-96s-96 42.98-96 96zm224-224l329.596 142.172-23.77 59.424-401.826-137.596h-64l-401.826 137.596-23.77-59.424 329.596-142.172v-256l-131.27-424.57 59.84-22.7 185.716 415.27h27.428l185.716-415.27 59.84 22.7-131.27 424.57z"/><glyph unicode="" d="M1024 512h-100.924c-27.64 178.24-168.836 319.436-347.076 347.076v100.924h-128v-100.924c-178.24-27.64-319.436-168.836-347.076-347.076h-100.924v-128h100.924c27.64-178.24 168.836-319.436 347.076-347.076v-100.924h128v100.924c178.24 27.64 319.436 168.836 347.076 347.076h100.924v128zm-231.178 0h-99.762c-19.284 54.55-62.51 97.778-117.06 117.06v99.762c107.514-24.49 192.332-109.31 216.822-216.822zm-280.822-128c-35.346 0-64 28.654-64 64s28.654 64 64 64c35.346 0 64-28.654 64-64s-28.654-64-64-64zm-64 344.822v-99.762c-54.55-19.282-97.778-62.51-117.06-117.06h-99.762c24.49 107.512 109.31 192.332 216.822 216.822zm-216.822-344.822h99.762c19.282-54.55 62.51-97.778 117.06-117.06v-99.762c-107.512 24.49-192.332 109.308-216.822 216.822zm344.822-216.822v99.762c54.55 19.284 97.778 62.51 117.06 117.06h99.762c-24.49-107.514-109.308-192.332-216.822-216.822z"/><glyph unicode="" d="M960 960l-448-128-448 128s-4.5-51.698 0-128l448-140.09 448 140.09c4.498 76.302 0 128 0 128zm-887.81-195.106c23.986-250.696 113.49-672.234 439.81-828.894 326.32 156.66 415.824 578.198 439.81 828.894l-439.81-165.358-439.81 165.358z"/></font>
</defs>
</svg>
